<svg id="svg" version="1.1" xmlns="http://www.w3.org/2000/svg" xmlns:xlink="http://www.w3.org/1999/xlink" width="400" height="266.25" viewBox="0, 0, 400,266.25"><g id="svgg"><path id="path0" d="M62.495 23.435 C 62.257 25.041,61.340 33.707,60.986 37.683 C 60.830 39.441,60.524 42.497,60.307 44.474 C 60.090 46.451,59.561 51.724,59.131 56.192 C 58.702 60.659,58.101 66.771,57.797 69.774 C 57.493 72.776,57.096 76.851,56.915 78.828 L 56.586 82.423 53.666 82.500 C 50.035 82.594,49.534 82.911,49.534 85.111 C 49.534 87.570,50.220 88.149,53.132 88.149 L 54.892 88.149 54.810 89.146 C 54.730 90.106,54.683 90.149,53.529 90.324 C 48.659 91.059,44.824 94.152,42.930 98.871 C 42.509 99.919,42.467 104.206,42.344 158.322 L 42.210 216.644 39.148 216.778 C 36.589 216.889,35.910 217.012,35.020 217.525 C 31.285 219.678,31.374 225.213,35.174 227.102 C 36.351 227.688,36.645 227.708,44.493 227.748 C 48.950 227.771,53.111 227.841,53.740 227.905 L 54.883 228.021 54.805 229.789 L 54.727 231.558 51.931 231.623 C 48.218 231.710,47.670 232.185,47.670 235.316 C 47.670 239.580,47.052 239.414,62.889 239.414 L 75.952 239.414 76.858 238.509 C 77.740 237.627,77.763 237.547,77.763 235.426 C 77.763 232.390,77.127 231.707,74.255 231.658 C 70.300 231.590,70.717 231.805,70.628 229.794 C 70.555 228.149,70.591 228.020,71.160 227.870 C 71.496 227.782,87.546 227.705,106.826 227.700 C 146.139 227.690,143.633 227.810,147.706 225.739 C 163.849 217.534,161.597 193.953,144.191 188.934 C 142.164 188.350,129.153 188.041,127.494 188.538 C 122.924 189.907,122.261 196.139,126.425 198.587 L 127.696 199.334 134.621 199.469 C 141.184 199.598,141.604 199.636,142.688 200.213 C 149.252 203.706,149.130 212.793,142.477 215.950 L 141.012 216.644 111.916 216.644 L 82.820 216.644 82.755 158.722 L 82.690 100.799 81.978 98.967 C 80.213 94.425,76.745 91.409,72.263 90.518 L 70.573 90.182 70.573 89.166 L 70.573 88.149 72.321 88.149 C 75.075 88.149,75.877 87.503,75.890 85.274 C 75.905 82.913,75.331 82.557,71.517 82.557 C 69.826 82.557,68.442 82.489,68.442 82.405 C 68.442 82.322,68.205 80.075,67.916 77.412 C 67.627 74.749,67.203 70.353,66.973 67.643 C 66.744 64.933,66.381 61.099,66.165 59.121 C 65.950 57.144,65.479 52.230,65.118 48.202 C 64.757 44.174,64.285 39.201,64.068 37.150 C 63.852 35.100,63.484 31.085,63.252 28.229 C 62.749 22.055,62.723 21.893,62.495 23.435 M68.387 90.711 L 68.466 92.342 70.385 92.476 C 74.386 92.755,77.679 94.945,79.423 98.487 L 80.293 100.255 80.362 147.331 C 80.400 173.223,80.336 194.407,80.220 194.407 C 80.104 194.407,77.563 191.951,74.574 188.948 C 71.584 185.945,69.101 183.489,69.056 183.489 C 69.011 183.489,68.975 184.359,68.975 185.422 L 68.975 187.355 74.700 193.076 L 80.426 198.797 80.426 202.994 C 80.426 205.302,80.335 207.190,80.224 207.190 C 80.113 207.190,77.566 204.732,74.565 201.728 L 69.108 196.266 68.975 209.118 L 68.842 221.971 68.118 223.343 C 66.763 225.913,66.924 225.868,59.405 225.753 C 54.125 225.673,52.638 225.568,51.698 225.210 C 50.726 224.841,49.452 224.767,44.041 224.767 C 36.392 224.767,36.485 224.798,36.485 222.191 C 36.485 219.769,36.608 219.707,41.422 219.707 L 45.477 219.707 45.042 218.575 C 44.645 217.541,44.607 212.425,44.607 158.988 L 44.607 100.533 45.249 98.935 C 46.738 95.225,50.423 92.730,54.794 92.473 L 56.991 92.343 56.991 90.823 C 56.991 88.811,56.615 88.928,62.833 89.009 L 68.309 89.081 68.387 90.711 M109.854 104.504 C 103.249 106.143,100.408 110.634,100.403 119.441 C 100.399 126.774,100.958 127.390,107.479 127.247 C 113.467 127.114,113.774 126.739,113.980 119.308 C 114.115 114.398,114.162 114.032,114.833 112.592 C 118.893 103.875,133.549 103.875,137.635 112.592 L 138.349 114.115 138.349 138.881 L 138.349 163.648 137.485 165.301 C 135.065 169.934,132.151 171.364,125.467 171.199 C 119.864 171.060,117.342 169.690,115.152 165.591 L 114.115 163.648 114.029 152.730 C 113.912 137.867,114.648 135.316,120.445 130.493 C 122.780 128.550,122.902 128.628,117.510 128.633 C 108.879 128.642,105.179 130.284,102.155 135.450 C 100.355 138.524,100.357 138.499,100.450 156.616 L 100.533 172.753 101.571 174.799 C 104.626 180.817,107.423 181.875,120.293 181.884 C 132.962 181.893,135.440 181.117,138.642 176.135 C 140.760 172.839,140.633 175.081,140.552 142.535 L 140.479 113.582 139.486 111.502 C 137.772 107.911,134.447 105.199,130.812 104.427 C 128.802 104.001,111.629 104.063,109.854 104.504 M143.142 105.675 C 146.734 108.015,148.584 110.248,149.696 113.582 C 149.979 114.432,150.080 120.456,150.194 143.409 C 150.355 175.703,150.184 173.105,152.363 176.336 C 153.746 178.387,155.546 179.862,157.923 180.892 L 159.920 181.758 170.439 181.758 C 180.795 181.758,180.981 181.748,182.387 181.150 C 186.586 179.366,189.395 176.056,190.288 171.843 C 190.781 169.517,190.861 138.837,190.381 136.564 C 189.335 131.622,185.625 127.779,180.801 126.642 C 175.162 125.313,165.976 127.445,166.626 129.931 C 166.868 130.856,167.542 130.799,169.837 129.662 C 176.517 126.353,185.097 128.873,187.630 134.887 L 188.415 136.751 188.415 149.534 C 188.415 164.840,188.351 165.186,184.883 168.456 C 182.707 170.509,181.501 170.839,176.165 170.839 L 171.372 170.839 169.791 170.040 C 166.691 168.473,164.592 165.646,164.044 162.303 C 163.889 161.357,163.784 150.782,163.783 136.029 C 163.782 111.431,163.779 111.333,163.210 109.810 C 162.487 107.879,160.801 106.057,158.796 105.041 L 157.257 104.261 149.001 104.187 L 140.746 104.113 143.142 105.675 M368.009 105.900 C 367.709 106.260,367.631 109.244,367.577 122.344 C 367.540 131.147,367.480 144.101,367.443 151.132 L 367.377 163.915 366.598 165.451 C 364.467 169.658,361.598 171.105,355.387 171.105 L 350.854 171.105 349.024 170.204 C 345.958 168.695,343.899 166.003,343.269 162.683 C 342.856 160.503,342.953 142.385,343.388 140.613 C 344.537 135.928,345.994 133.711,350.732 129.444 L 351.664 128.604 345.939 128.711 C 336.208 128.893,331.375 132.042,329.715 139.281 C 329.326 140.980,329.332 170.225,329.723 172.091 C 330.637 176.460,334.414 180.317,338.933 181.494 C 340.775 181.973,358.050 182.063,360.046 181.603 C 363.804 180.737,366.872 178.211,368.644 174.521 L 369.774 172.170 369.848 139.241 C 369.916 109.337,369.884 106.273,369.496 105.886 C 368.951 105.340,368.469 105.345,368.009 105.900 M305.193 111.318 C 297.182 111.464,296.849 111.531,296.027 113.155 C 294.436 116.304,296.263 120.107,299.368 120.107 L 300.666 120.107 300.666 122.636 L 300.666 125.166 297.104 125.166 C 292.723 125.166,292.107 125.284,290.959 126.335 C 287.723 129.300,290.048 134.211,294.692 134.220 L 295.510 134.221 295.403 147.337 C 295.234 168.062,295.704 170.420,300.569 173.271 C 301.682 173.923,301.711 173.975,301.575 175.054 C 301.409 176.375,302.151 177.791,303.138 178.039 C 303.816 178.209,303.790 178.055,305.812 194.074 C 306.131 196.601,306.453 198.668,306.529 198.668 C 306.681 198.668,307.197 195.066,308.487 185.003 L 309.334 178.395 310.174 177.988 C 311.247 177.469,311.933 176.073,311.707 174.870 C 311.555 174.063,311.627 173.918,312.427 173.420 C 313.762 172.590,315.720 170.467,316.473 169.034 C 317.686 166.729,317.735 165.906,317.653 149.243 L 317.577 133.555 316.734 131.776 C 316.270 130.798,315.401 129.466,314.803 128.817 C 314.205 128.168,313.715 127.560,313.715 127.467 C 313.715 127.373,315.938 127.297,318.655 127.297 C 324.394 127.297,324.973 127.454,325.425 129.132 C 325.816 130.584,326.312 130.942,327.162 130.385 C 327.924 129.886,327.921 129.900,327.552 128.570 C 327.252 127.490,326.238 126.142,325.337 125.626 C 324.953 125.406,322.769 125.256,318.642 125.166 L 312.517 125.033 312.517 122.636 L 312.517 120.240 313.904 120.100 C 319.105 119.577,319.055 111.683,313.848 111.287 C 313.116 111.231,309.221 111.245,305.193 111.318 M253.330 111.917 C 250.044 114.214,251.506 119.700,255.510 120.104 L 256.858 120.240 256.858 122.636 L 256.858 125.033 252.730 125.166 C 248.141 125.314,247.505 125.516,246.360 127.186 C 244.329 130.151,246.301 133.762,250.114 134.059 L 251.531 134.170 251.664 150.507 C 251.797 166.824,251.798 166.846,252.406 168.164 C 253.328 170.164,254.927 172.120,256.426 173.082 C 257.751 173.932,257.771 173.965,257.634 175.056 C 257.467 176.383,258.212 177.791,259.214 178.043 C 259.729 178.172,259.885 178.424,260.003 179.315 C 260.085 179.926,260.508 183.182,260.944 186.551 C 262.030 194.935,262.669 199.350,262.754 199.052 C 262.793 198.914,263.133 196.405,263.508 193.475 C 263.884 190.546,264.425 186.471,264.712 184.421 C 264.998 182.370,265.236 180.185,265.239 179.564 C 265.246 178.533,265.325 178.403,266.161 178.054 C 267.349 177.557,268.005 176.320,267.781 174.997 C 267.620 174.045,267.661 173.980,268.925 173.160 C 270.542 172.113,271.965 170.409,272.914 168.384 L 273.635 166.844 273.710 150.544 L 273.784 134.244 272.980 132.161 C 272.392 130.635,271.855 129.762,270.975 128.898 C 269.302 127.256,269.200 127.297,274.937 127.297 C 280.757 127.297,280.921 127.346,281.577 129.279 C 282.012 130.558,282.603 131.007,283.200 130.511 C 284.231 129.656,283.406 127.143,281.672 125.857 C 280.975 125.339,280.480 125.290,274.748 125.166 L 268.575 125.033 268.575 122.636 L 268.575 120.240 269.922 120.104 C 273.974 119.696,275.414 113.802,271.955 111.784 C 270.562 110.972,254.519 111.086,253.330 111.917 M271.151 113.889 C 271.768 114.448,271.812 116.544,271.223 117.384 C 270.605 118.266,255.204 118.320,254.328 117.443 C 253.671 116.787,253.606 114.903,254.210 114.041 C 254.774 113.235,270.275 113.097,271.151 113.889 M315.165 114.041 C 315.768 114.903,315.703 116.787,315.047 117.443 C 314.295 118.195,299.044 118.278,298.223 117.535 C 297.577 116.950,297.547 114.632,298.177 113.936 C 298.934 113.099,314.573 113.196,315.165 114.041 M266.312 122.636 L 266.312 125.166 262.716 125.166 L 259.121 125.166 259.121 122.636 L 259.121 120.107 262.716 120.107 L 266.312 120.107 266.312 122.636 M310.196 122.703 L 310.273 125.166 306.686 125.166 C 302.533 125.166,302.722 125.307,302.816 122.302 C 302.890 119.932,302.626 120.081,306.612 120.166 L 310.120 120.240 310.196 122.703 M192.410 126.711 C 195.857 128.952,197.527 130.950,198.725 134.267 L 199.334 135.952 199.467 158.082 C 199.612 182.132,199.511 180.688,201.099 181.509 C 201.652 181.795,202.928 181.891,206.179 181.890 C 211.100 181.889,211.941 181.630,212.666 179.896 C 213.174 178.680,213.244 133.897,212.740 131.899 C 212.159 129.591,214.669 128.512,220.639 128.502 C 226.102 128.494,228.785 129.731,231.021 133.289 C 232.695 135.954,232.633 134.900,232.523 158.784 C 232.415 182.427,232.385 181.891,233.834 181.891 C 234.849 181.891,234.887 181.082,234.885 159.437 C 234.882 133.943,234.882 133.939,231.470 130.403 C 227.192 125.970,219.171 124.779,213.184 127.686 L 211.344 128.580 210.176 127.551 C 207.646 125.324,207.568 125.309,198.269 125.226 L 190.013 125.152 192.410 126.711 M266.318 128.132 C 268.412 129.100,270.358 131.086,271.065 132.976 C 271.940 135.314,271.962 164.759,271.091 167.088 C 268.368 174.364,258.104 174.815,254.664 167.809 L 253.928 166.312 253.848 154.927 L 253.768 143.542 255.246 143.542 C 256.645 143.542,256.724 143.506,256.724 142.876 C 256.724 142.247,256.644 142.210,255.260 142.210 L 253.795 142.210 253.801 138.682 C 253.805 136.741,253.928 134.630,254.076 133.992 C 254.453 132.357,254.153 132.091,251.938 132.091 C 248.166 132.091,246.442 130.082,248.472 128.051 L 249.275 127.249 257.061 127.351 C 264.746 127.451,264.866 127.461,266.318 128.132 M308.742 127.670 C 311.856 128.403,314.392 130.841,315.177 133.856 C 315.739 136.012,315.767 163.880,315.210 166.248 C 313.365 174.089,302.430 175.233,298.611 167.985 L 297.870 166.578 297.792 155.060 L 297.715 143.542 299.190 143.542 C 300.587 143.542,300.666 143.506,300.666 142.876 C 300.666 142.245,300.588 142.210,299.169 142.210 L 297.673 142.210 297.771 137.217 L 297.870 132.224 295.606 132.091 C 294.361 132.017,293.067 131.800,292.730 131.608 C 291.381 130.839,291.314 128.419,292.621 127.709 C 293.628 127.163,306.453 127.132,308.742 127.670 M265.599 175.340 C 265.837 175.960,265.536 176.032,262.688 176.032 C 260.085 176.032,259.408 175.846,259.787 175.233 C 260.059 174.792,265.427 174.891,265.599 175.340 M309.454 175.499 C 309.454 176.000,309.277 176.032,306.525 176.032 C 303.681 176.032,303.079 175.838,303.773 175.144 C 304.279 174.638,309.454 174.961,309.454 175.499 M68.708 229.665 C 68.708 231.129,68.634 231.158,64.980 231.158 C 61.326 231.158,61.252 231.129,61.252 229.665 L 61.252 228.495 64.980 228.495 L 68.708 228.495 68.708 229.665 M64.548 234.697 C 64.901 234.955,64.995 235.333,64.932 236.228 L 64.847 237.417 58.722 237.417 L 52.597 237.417 52.512 236.228 C 52.381 234.394,52.514 234.354,58.722 234.354 C 62.668 234.354,64.203 234.444,64.548 234.697 " stroke="none" fill="#631293" fill-rule="evenodd"></path><path id="path1" d="M0.000 133.156 L 0.000 266.312 200.000 266.312 L 400.000 266.312 400.000 133.156 L 400.000 0.000 200.000 0.000 L 0.000 0.000 0.000 133.156 M63.511 28.895 C 63.733 30.945,64.208 35.919,64.566 39.947 C 64.925 43.975,65.462 49.727,65.761 52.730 C 66.060 55.732,66.491 60.166,66.719 62.583 C 66.947 65.000,67.356 69.314,67.629 72.170 C 67.902 75.027,68.209 78.472,68.312 79.827 L 68.499 82.290 71.227 82.290 C 75.521 82.290,76.379 82.900,76.104 85.758 C 75.908 87.799,75.441 88.149,72.912 88.149 L 70.807 88.149 70.889 89.146 C 70.972 90.137,70.979 90.143,72.437 90.346 C 75.687 90.800,79.599 93.663,81.285 96.824 C 82.923 99.894,82.823 95.836,82.823 158.911 L 82.823 216.511 111.333 216.511 C 141.097 216.511,141.445 216.499,143.142 215.363 C 149.159 211.339,148.669 203.316,142.223 200.293 C 140.780 199.617,140.587 199.598,133.822 199.468 C 126.158 199.320,126.223 199.335,124.545 197.340 C 122.351 194.733,123.255 190.483,126.374 188.743 L 127.696 188.005 135.153 188.093 C 142.069 188.175,142.745 188.225,144.474 188.791 C 163.161 194.904,163.829 220.082,145.487 226.951 L 143.142 227.830 107.146 227.963 C 87.348 228.036,71.091 228.156,71.020 228.229 C 70.879 228.374,70.765 229.618,70.811 230.528 C 70.837 231.060,71.008 231.104,73.435 231.208 C 77.129 231.365,78.029 232.189,78.029 235.411 C 78.029 239.630,78.858 239.414,62.681 239.414 L 49.031 239.414 48.294 238.780 C 47.644 238.221,47.545 237.924,47.451 236.252 C 47.217 232.109,47.884 231.366,51.989 231.201 L 54.594 231.097 54.594 229.698 L 54.594 228.299 53.595 228.134 C 53.046 228.043,48.907 227.967,44.397 227.966 C 34.504 227.962,33.571 227.675,32.367 224.264 C 30.830 219.906,33.544 216.706,38.904 216.556 L 42.073 216.467 42.141 158.233 L 42.210 100.000 43.101 97.935 C 44.950 93.648,48.592 90.946,53.595 90.148 C 54.526 90.000,54.594 89.926,54.594 89.069 L 54.594 88.149 52.547 88.149 C 49.797 88.149,49.264 87.697,49.276 85.373 C 49.290 82.744,49.952 82.290,53.777 82.290 L 56.458 82.290 56.470 81.025 C 56.476 80.330,56.652 78.322,56.860 76.565 C 57.069 74.807,57.606 69.481,58.055 64.730 C 58.503 59.979,58.926 55.844,58.995 55.542 C 59.064 55.240,59.422 51.578,59.789 47.403 C 60.157 43.229,60.518 39.550,60.590 39.228 C 60.663 38.906,61.078 34.879,61.513 30.279 C 62.395 20.954,62.609 19.843,62.908 23.036 C 63.018 24.208,63.290 26.844,63.511 28.895 M57.203 90.879 L 57.124 92.543 54.860 92.723 C 50.380 93.079,47.551 94.918,45.505 98.802 L 44.874 100.000 44.800 120.038 L 44.727 140.076 45.965 139.291 C 47.855 138.093,49.305 137.913,56.373 138.002 L 62.730 138.083 64.454 138.949 C 66.336 139.895,67.679 141.354,68.478 143.324 C 68.907 144.382,68.946 146.014,68.960 163.651 L 68.975 182.828 74.570 188.418 L 80.165 194.008 80.096 147.137 L 80.027 100.266 79.422 98.956 C 77.699 95.220,74.637 93.128,70.306 92.728 L 68.309 92.543 68.230 90.879 L 68.150 89.214 62.716 89.214 L 57.282 89.214 57.203 90.879 M131.856 104.471 C 135.821 105.789,138.914 108.806,140.240 112.650 C 140.725 114.053,140.746 115.325,140.746 143.142 L 140.746 172.170 140.174 173.680 C 138.793 177.328,135.804 180.260,132.250 181.451 C 129.992 182.207,113.483 182.453,110.259 181.778 C 105.359 180.753,101.984 177.647,100.562 172.854 C 100.189 171.596,100.133 169.367,100.133 155.668 L 100.133 139.928 100.753 138.034 C 103.029 131.088,107.771 128.374,117.643 128.366 C 123.509 128.362,123.448 128.324,120.906 130.378 C 115.049 135.110,114.257 137.680,114.252 151.969 C 114.247 163.681,114.351 164.473,116.233 167.022 C 120.576 172.906,132.682 172.616,136.553 166.535 C 138.290 163.807,138.234 164.791,138.155 138.189 L 138.083 114.103 137.211 112.332 C 135.130 108.107,132.332 106.662,126.232 106.662 C 121.116 106.662,119.872 107.056,117.419 109.457 C 114.748 112.070,114.418 113.096,114.246 119.308 C 114.091 124.906,114.038 125.126,112.538 126.443 C 111.373 127.466,110.163 127.664,105.978 127.514 C 100.683 127.326,100.298 126.812,100.183 119.790 C 100.024 110.090,103.560 105.042,111.170 104.105 C 114.242 103.727,130.481 104.014,131.856 104.471 M158.477 104.621 C 160.292 105.325,162.162 107.058,163.169 108.971 L 163.915 110.386 164.048 136.618 L 164.181 162.850 164.803 164.390 C 168.277 172.998,183.122 173.439,187.180 165.056 C 188.084 163.189,188.272 160.687,188.265 150.599 C 188.255 134.826,187.942 133.456,183.669 130.474 C 180.232 128.074,172.379 128.032,168.899 130.394 C 167.371 131.431,166.316 131.044,166.492 129.511 C 166.732 127.422,170.807 126.159,176.923 126.276 L 181.522 126.365 183.588 127.387 C 186.294 128.725,188.187 130.618,189.524 133.324 L 190.546 135.392 190.546 154.061 L 190.546 172.731 189.534 174.778 C 187.874 178.136,185.543 180.257,182.198 181.452 C 180.381 182.101,164.360 182.444,160.792 181.910 C 156.057 181.202,152.117 177.823,150.370 172.972 C 150.172 172.424,150.037 162.984,149.941 143.142 L 149.800 114.115 148.652 111.807 C 147.285 109.061,145.749 107.496,142.535 105.578 L 140.329 104.261 142.668 104.096 C 148.147 103.711,156.879 104.001,158.477 104.621 M369.640 105.726 C 370.358 106.443,370.480 168.549,369.770 171.899 C 368.686 177.017,364.890 180.815,359.907 181.768 C 357.485 182.232,342.609 182.318,339.814 181.885 C 335.232 181.175,331.383 177.827,329.752 173.134 C 329.110 171.286,328.932 142.478,329.545 139.530 C 331.148 131.814,335.870 128.628,346.005 128.426 C 352.516 128.296,352.664 128.345,350.567 129.960 C 347.610 132.236,345.358 135.321,344.011 138.941 C 343.349 140.718,342.958 158.813,343.505 162.326 C 344.410 168.141,348.424 171.105,355.393 171.105 C 360.856 171.105,363.504 169.882,365.798 166.299 C 367.593 163.495,367.510 165.054,367.510 134.059 C 367.510 108.933,367.553 105.987,367.928 105.612 C 368.490 105.051,368.999 105.084,369.640 105.726 M316.349 111.830 C 319.595 114.142,317.743 120.373,313.809 120.373 L 312.650 120.373 312.650 122.623 L 312.650 124.872 318.729 124.953 C 324.710 125.032,324.823 125.044,325.790 125.699 C 327.964 127.173,328.559 131.025,326.612 131.025 C 326.009 131.025,325.166 130.022,325.166 129.305 C 325.166 127.751,324.497 127.563,318.962 127.563 C 314.141 127.563,313.945 127.583,314.444 128.029 C 315.610 129.071,316.655 130.778,317.297 132.692 L 317.976 134.714 317.976 150.133 L 317.976 165.553 317.324 167.469 C 316.422 170.123,313.920 173.281,312.318 173.789 C 311.951 173.905,311.851 174.236,311.851 175.325 C 311.851 176.917,311.425 177.677,310.264 178.158 C 309.627 178.422,309.454 178.657,309.454 179.259 C 309.454 179.680,309.162 182.034,308.805 184.490 C 308.448 186.946,307.907 190.991,307.602 193.479 C 306.554 202.024,306.600 202.074,305.189 190.812 C 304.173 182.704,303.527 178.561,303.262 178.462 C 302.069 178.014,301.332 176.840,301.345 175.406 C 301.357 174.127,301.281 173.903,300.747 173.660 C 299.783 173.221,297.842 171.317,296.965 169.950 C 295.370 167.465,295.340 167.087,295.340 150.065 L 295.340 134.596 293.619 134.301 C 289.011 133.512,287.633 128.546,291.254 125.781 C 292.218 125.045,292.298 125.032,296.450 124.948 L 300.666 124.863 300.666 122.618 L 300.666 120.373 299.534 120.372 C 295.341 120.371,293.568 114.273,297.023 111.737 C 298.553 110.613,314.750 110.692,316.349 111.830 M271.896 111.447 C 275.819 113.476,274.199 120.373,269.800 120.373 L 268.708 120.373 268.708 122.636 L 268.708 124.900 274.483 124.900 C 279.837 124.900,280.344 124.942,281.433 125.469 C 283.821 126.625,284.951 130.301,283.100 130.889 C 282.381 131.117,281.491 130.588,281.491 129.933 C 281.491 129.268,281.014 128.338,280.449 127.905 C 280.153 127.677,278.547 127.578,275.074 127.572 L 270.122 127.563 271.151 128.678 C 272.422 130.055,273.409 132.036,273.765 133.924 C 274.139 135.916,274.125 164.254,273.748 166.329 C 273.235 169.150,270.731 172.701,268.555 173.693 C 267.970 173.959,267.893 174.127,268.026 174.837 C 268.263 176.100,267.713 177.313,266.580 178.028 C 265.676 178.599,265.568 178.792,265.437 180.075 C 265.198 182.423,263.706 193.821,263.265 196.671 C 263.038 198.136,262.844 199.514,262.833 199.734 C 262.764 201.149,262.209 198.206,261.504 192.676 C 259.536 177.248,259.694 178.162,258.992 178.162 C 258.220 178.162,257.487 176.780,257.557 175.457 C 257.622 174.221,257.598 174.179,256.308 173.293 C 254.579 172.104,252.937 170.063,252.159 168.134 L 251.531 166.578 251.457 150.533 L 251.382 134.487 250.658 134.486 C 246.450 134.477,243.843 129.971,246.233 126.837 C 247.486 125.194,248.491 124.900,252.852 124.900 L 256.724 124.900 256.724 122.636 L 256.724 120.373 255.633 120.373 C 251.180 120.373,249.576 113.199,253.634 111.433 C 254.900 110.881,270.827 110.894,271.896 111.447 M254.653 113.863 C 254.179 114.195,254.061 114.536,254.061 115.575 C 254.061 117.776,253.792 117.710,262.716 117.710 C 271.575 117.710,271.372 117.757,271.372 115.693 C 271.372 113.432,271.434 113.449,262.776 113.449 C 256.391 113.449,255.155 113.512,254.653 113.863 M298.595 113.863 C 297.857 114.380,297.744 116.614,298.421 117.291 C 299.051 117.921,314.265 117.921,314.894 117.291 C 315.746 116.439,315.410 114.322,314.332 113.755 C 313.351 113.239,299.348 113.335,298.595 113.863 M259.121 122.629 L 259.121 124.900 262.555 124.900 C 266.447 124.900,266.178 125.088,266.178 122.370 L 266.178 120.506 262.650 120.432 L 259.121 120.357 259.121 122.629 M303.063 122.636 L 303.063 124.900 306.525 124.900 L 309.987 124.900 309.987 122.636 L 309.987 120.373 306.525 120.373 L 303.063 120.373 303.063 122.636 M207.989 125.784 C 208.795 126.196,209.877 126.944,210.395 127.446 L 211.336 128.357 213.308 127.361 L 215.280 126.365 220.489 126.365 L 225.699 126.365 227.738 127.339 C 231.466 129.119,233.898 132.200,234.750 136.223 C 235.454 139.548,235.336 180.909,234.621 181.625 C 234.005 182.240,233.572 182.292,232.944 181.824 C 232.532 181.518,232.491 179.701,232.427 158.988 L 232.357 136.485 231.511 134.700 C 228.823 129.026,220.082 126.627,214.030 129.902 L 212.747 130.597 212.965 131.943 C 213.383 134.527,213.233 179.241,212.803 180.260 C 211.681 182.921,201.535 183.085,199.619 180.473 C 199.073 179.728,199.067 179.514,199.020 157.818 C 198.973 136.181,198.965 135.893,198.401 134.216 C 197.288 130.914,195.500 128.896,191.561 126.496 C 190.508 125.855,189.710 125.227,189.787 125.101 C 189.865 124.975,193.663 124.909,198.227 124.953 L 206.525 125.033 207.989 125.784 M248.488 128.265 C 246.892 130.294,248.437 131.824,252.081 131.824 C 254.436 131.824,254.267 131.375,254.114 137.215 L 253.990 141.944 255.357 141.944 L 256.724 141.944 256.724 134.754 L 256.724 127.563 252.882 127.563 C 249.049 127.563,249.039 127.565,248.488 128.265 M292.429 128.265 C 290.895 130.216,292.049 131.657,295.249 131.785 C 298.391 131.910,298.204 131.552,298.057 137.147 L 297.931 141.944 299.263 141.944 L 300.596 141.944 300.621 134.754 L 300.646 127.563 296.814 127.563 C 292.991 127.563,292.980 127.565,292.429 128.265 M268.729 141.097 C 268.741 155.518,268.850 155.260,262.797 155.260 C 257.280 155.260,256.724 154.617,256.724 148.244 L 256.724 143.808 255.393 143.808 L 254.061 143.808 254.061 154.853 L 254.061 165.897 254.698 167.336 C 257.721 174.172,267.581 174.400,270.609 167.704 L 271.238 166.312 271.238 150.067 C 271.238 131.995,271.325 132.904,269.395 130.629 L 268.720 129.832 268.729 141.097 M312.656 141.150 L 312.650 152.473 311.976 153.464 C 310.926 155.010,310.189 155.260,306.680 155.260 C 301.202 155.260,300.627 154.589,300.596 148.169 L 300.575 143.808 299.289 143.808 L 298.003 143.808 298.003 154.717 C 298.003 165.204,298.025 165.685,298.571 167.145 C 301.210 174.198,311.127 174.529,314.412 167.674 L 315.313 165.794 315.313 150.074 L 315.312 134.354 314.531 132.756 C 314.101 131.877,313.505 130.859,313.206 130.493 L 312.662 129.827 312.656 141.150 M260.076 175.462 C 259.880 175.780,262.849 176.058,264.304 175.859 C 264.962 175.769,265.436 175.591,265.358 175.464 C 265.172 175.164,260.262 175.162,260.076 175.462 M303.995 175.499 C 303.904 175.646,303.987 175.773,304.179 175.781 C 304.370 175.789,305.067 175.855,305.726 175.927 C 307.177 176.085,309.188 175.827,309.188 175.483 C 309.188 175.146,304.204 175.161,303.995 175.499 M69.009 191.783 L 68.944 195.549 74.550 201.170 L 80.156 206.791 80.158 202.821 L 80.160 198.851 74.719 193.434 C 71.727 190.454,69.233 188.016,69.177 188.016 C 69.120 188.016,69.045 189.711,69.009 191.783 M47.507 192.259 C 46.669 192.616,46.571 194.239,46.608 207.135 C 46.626 213.391,46.632 218.829,46.622 219.221 L 46.605 219.932 42.011 219.957 C 36.737 219.986,36.751 219.980,36.751 222.247 C 36.751 224.544,36.601 224.501,44.761 224.497 C 52.172 224.493,52.863 224.433,53.118 223.768 C 53.411 223.005,53.277 192.718,52.980 192.420 C 52.629 192.069,48.255 191.940,47.507 192.259 M61.571 228.815 C 61.395 228.991,61.252 229.386,61.252 229.694 C 61.252 230.736,61.736 230.892,64.980 230.892 C 68.224 230.892,68.708 230.736,68.708 229.694 C 68.708 228.651,68.224 228.495,64.980 228.495 C 62.932 228.495,61.783 228.603,61.571 228.815 M53.395 234.844 C 52.438 235.058,52.131 236.380,52.867 237.117 C 53.443 237.692,63.778 237.770,64.551 237.205 C 65.289 236.666,65.041 235.106,64.181 234.880 C 63.294 234.648,54.411 234.618,53.395 234.844 " stroke="none" fill="#fbfbfb" fill-rule="evenodd"></path><path id="path2" d="M257.339 127.597 C 257.042 127.955,256.909 135.315,256.969 148.010 L 256.991 152.611 258.182 153.802 L 259.373 154.993 262.618 154.993 C 268.568 154.993,268.442 155.299,268.442 140.800 C 268.442 128.040,268.642 129.161,266.178 128.085 C 264.466 127.338,257.857 126.973,257.339 127.597 M301.233 127.655 C 300.828 128.143,300.765 151.646,301.166 152.597 C 302.582 155.955,310.298 156.123,312.000 152.832 C 312.316 152.220,312.383 150.105,312.383 140.763 L 312.383 129.435 311.319 128.731 C 309.347 127.426,302.067 126.649,301.233 127.655 M48.289 138.592 C 47.171 138.948,45.429 139.912,44.805 140.519 C 44.416 140.897,44.451 216.183,44.841 217.843 C 45.140 219.120,45.515 219.759,45.890 219.635 C 46.125 219.557,46.239 216.076,46.338 206.015 C 46.494 190.177,46.085 191.744,50.067 191.744 C 54.073 191.744,53.649 189.857,53.735 208.095 C 53.815 225.268,53.861 224.767,52.197 224.767 C 51.479 224.767,51.521 225.190,52.264 225.435 C 52.593 225.544,55.807 225.683,59.405 225.743 C 66.925 225.869,66.762 225.915,68.118 223.343 L 68.842 221.971 68.742 183.363 C 68.660 151.537,68.579 144.573,68.278 143.721 C 67.596 141.787,66.210 140.243,64.273 139.260 L 62.480 138.349 55.941 138.294 C 51.102 138.253,49.112 138.330,48.289 138.592 " stroke="none" fill="#ecac13" fill-rule="evenodd"></path><path id="path3" d="M62.475 21.505 C 62.250 22.231,61.785 26.658,61.824 27.696 C 61.843 28.209,62.004 27.430,62.182 25.965 C 62.360 24.501,62.598 22.793,62.712 22.170 C 62.915 21.053,62.754 20.601,62.475 21.505 M63.183 27.563 C 63.186 28.149,63.240 28.357,63.304 28.026 C 63.368 27.695,63.365 27.216,63.299 26.961 C 63.232 26.706,63.180 26.977,63.183 27.563 M61.591 29.827 C 61.591 30.486,61.642 30.756,61.706 30.426 C 61.769 30.097,61.769 29.557,61.706 29.228 C 61.642 28.898,61.591 29.168,61.591 29.827 M63.468 30.759 C 64.040 37.424,64.286 39.765,64.384 39.471 C 64.523 39.055,63.640 29.211,63.448 29.028 C 63.371 28.955,63.380 29.734,63.468 30.759 M61.313 32.490 C 61.313 33.003,61.368 33.212,61.435 32.956 C 61.502 32.700,61.502 32.280,61.435 32.024 C 61.368 31.768,61.313 31.977,61.313 32.490 M61.047 35.419 C 61.047 35.932,61.102 36.142,61.169 35.885 C 61.236 35.629,61.236 35.210,61.169 34.953 C 61.102 34.697,61.047 34.907,61.047 35.419 M60.496 40.006 C 60.132 43.363,59.876 47.098,60.035 46.738 C 60.220 46.318,61.047 37.522,60.913 37.389 C 60.847 37.323,60.660 38.501,60.496 40.006 M64.509 41.012 C 64.509 41.525,64.564 41.734,64.631 41.478 C 64.698 41.222,64.698 40.802,64.631 40.546 C 64.564 40.290,64.509 40.499,64.509 41.012 M64.776 44.208 C 64.776 44.720,64.830 44.930,64.897 44.674 C 64.964 44.417,64.964 43.998,64.897 43.742 C 64.830 43.485,64.776 43.695,64.776 44.208 M65.047 47.270 C 65.050 47.856,65.105 48.065,65.168 47.733 C 65.232 47.402,65.230 46.923,65.163 46.668 C 65.096 46.413,65.044 46.684,65.047 47.270 M59.721 48.336 C 59.724 48.921,59.778 49.130,59.842 48.798 C 59.906 48.467,59.903 47.988,59.837 47.733 C 59.770 47.479,59.718 47.750,59.721 48.336 M65.425 50.999 C 65.503 52.317,65.725 54.714,65.920 56.325 L 66.274 59.254 66.133 56.858 C 66.055 55.539,65.833 53.142,65.638 51.531 L 65.284 48.602 65.425 50.999 M59.449 51.398 C 59.449 51.911,59.504 52.121,59.571 51.864 C 59.638 51.608,59.638 51.188,59.571 50.932 C 59.504 50.676,59.449 50.885,59.449 51.398 M59.188 54.194 C 59.191 54.780,59.246 54.989,59.310 54.657 C 59.373 54.326,59.371 53.847,59.304 53.592 C 59.237 53.337,59.185 53.609,59.188 54.194 M58.855 55.964 C 58.855 56.181,58.669 58.311,58.441 60.697 C 58.214 63.084,58.069 65.233,58.120 65.474 C 58.171 65.715,58.428 63.656,58.692 60.900 C 58.956 58.143,59.100 55.816,59.013 55.729 C 58.926 55.642,58.855 55.748,58.855 55.964 M66.379 60.852 C 66.382 61.438,66.436 61.646,66.500 61.315 C 66.564 60.984,66.561 60.505,66.495 60.250 C 66.428 59.995,66.376 60.266,66.379 60.852 M66.932 67.244 C 67.019 68.123,67.239 70.519,67.421 72.570 C 67.602 74.621,67.796 76.081,67.853 75.816 C 67.981 75.208,67.125 65.967,66.923 65.782 C 66.841 65.707,66.845 66.365,66.932 67.244 M57.857 67.244 C 57.860 67.830,57.914 68.038,57.978 67.707 C 58.042 67.375,58.039 66.896,57.973 66.641 C 57.906 66.387,57.854 66.658,57.857 67.244 M57.319 72.969 C 57.319 73.482,57.374 73.692,57.441 73.435 C 57.508 73.179,57.508 72.760,57.441 72.503 C 57.374 72.247,57.319 72.457,57.319 72.969 M56.788 77.230 C 56.603 79.061,56.453 80.945,56.455 81.416 L 56.458 82.272 53.728 82.361 L 50.999 82.450 53.792 82.437 L 56.586 82.423 56.923 78.961 C 57.109 77.057,57.230 75.140,57.192 74.700 C 57.155 74.261,56.973 75.399,56.788 77.230 M67.982 77.497 C 67.982 78.156,68.034 78.425,68.097 78.096 C 68.161 77.766,68.161 77.227,68.097 76.897 C 68.034 76.568,67.982 76.838,67.982 77.497 M69.840 82.487 C 70.682 82.540,72.061 82.540,72.903 82.487 C 73.745 82.434,73.056 82.391,71.372 82.391 C 69.687 82.391,68.998 82.434,69.840 82.487 M49.811 83.139 C 48.573 84.468,49.367 88.173,50.883 88.141 C 51.129 88.136,51.075 88.029,50.732 87.842 C 49.366 87.094,49.002 84.355,50.113 83.173 C 50.431 82.834,50.616 82.557,50.523 82.557 C 50.430 82.557,50.109 82.819,49.811 83.139 M75.245 83.210 C 75.758 83.723,75.908 84.169,75.944 85.274 C 75.982 86.492,76.003 86.543,76.095 85.645 C 76.261 84.031,75.655 82.557,74.827 82.557 C 74.697 82.557,74.886 82.851,75.245 83.210 M75.457 87.154 C 75.334 87.361,74.993 87.666,74.700 87.832 C 74.289 88.065,74.264 88.135,74.593 88.141 C 75.065 88.150,76.071 87.167,75.833 86.929 C 75.749 86.846,75.580 86.947,75.457 87.154 M54.634 88.995 C 54.606 89.682,54.455 90.011,54.128 90.096 C 53.691 90.210,53.692 90.220,54.136 90.249 C 54.713 90.286,54.938 89.777,54.787 88.771 C 54.690 88.123,54.668 88.155,54.634 88.995 M70.573 89.214 C 70.573 89.800,70.666 90.280,70.779 90.280 C 70.893 90.280,70.940 89.800,70.885 89.214 C 70.829 88.628,70.736 88.149,70.678 88.149 C 70.620 88.149,70.573 88.628,70.573 89.214 M57.173 89.120 C 57.073 89.221,56.991 89.987,56.991 90.823 L 56.991 92.343 54.794 92.473 C 50.608 92.719,45.188 96.394,45.284 98.920 C 45.289 99.075,45.485 98.842,45.717 98.402 C 47.557 94.929,50.558 93.065,54.860 92.723 L 57.124 92.543 57.203 90.879 L 57.282 89.214 62.716 89.214 L 68.150 89.214 68.230 90.879 L 68.309 92.543 70.306 92.728 C 74.637 93.128,77.699 95.220,79.422 98.956 L 80.027 100.266 80.096 147.137 L 80.165 194.008 74.767 188.615 C 71.798 185.649,69.257 183.222,69.120 183.222 C 68.982 183.222,71.377 185.739,74.440 188.815 C 77.504 191.891,80.105 194.407,80.221 194.407 C 80.336 194.407,80.400 173.223,80.362 147.331 L 80.293 100.255 79.423 98.487 C 77.679 94.945,74.386 92.755,70.385 92.476 L 68.466 92.342 68.387 90.711 L 68.309 89.081 62.833 89.009 C 59.821 88.970,57.274 89.020,57.173 89.120 M50.732 90.760 C 48.015 91.704,44.808 94.437,43.576 96.858 C 42.845 98.295,43.106 98.218,43.967 96.742 C 45.585 93.965,47.960 92.035,51.113 90.931 C 52.076 90.595,52.683 90.314,52.463 90.308 C 52.244 90.302,51.465 90.505,50.732 90.760 M73.019 90.650 C 77.268 91.892,80.334 94.710,81.922 98.835 C 82.281 99.769,82.506 100.173,82.423 99.734 C 81.652 95.692,76.769 90.951,72.836 90.427 C 71.779 90.286,71.780 90.288,73.019 90.650 M42.495 99.623 C 42.121 100.881,42.077 107.104,42.077 158.748 L 42.077 216.467 38.907 216.556 C 35.350 216.655,34.017 217.247,32.923 219.210 L 32.423 220.107 33.113 219.308 C 33.492 218.868,33.807 218.441,33.812 218.358 C 33.859 217.615,36.261 216.903,39.148 216.778 L 42.210 216.644 42.344 158.322 C 42.450 111.793,42.546 99.844,42.817 99.231 C 43.004 98.808,43.102 98.406,43.035 98.339 C 42.968 98.272,42.724 98.849,42.495 99.623 M44.600 120.506 C 44.600 131.345,44.633 135.740,44.674 130.273 C 44.714 124.806,44.714 115.938,44.674 110.566 C 44.633 105.194,44.600 109.667,44.600 120.506 M82.618 101.731 C 82.618 102.244,82.673 102.453,82.740 102.197 C 82.807 101.941,82.807 101.521,82.740 101.265 C 82.673 101.009,82.618 101.218,82.618 101.731 M116.594 104.061 C 118.837 104.105,122.432 104.105,124.584 104.061 C 126.735 104.016,124.900 103.979,120.506 103.980 C 116.112 103.980,114.352 104.016,116.594 104.061 M147.484 104.060 C 148.993 104.108,151.390 104.108,152.810 104.060 C 154.231 104.012,152.996 103.973,150.067 103.973 C 147.137 103.974,145.975 104.013,147.484 104.060 M140.368 104.227 C 140.429 104.281,141.558 104.991,142.876 105.805 C 145.914 107.680,147.271 109.079,148.629 111.733 C 149.224 112.896,149.626 113.549,149.521 113.182 C 148.644 110.102,142.673 104.128,140.473 104.128 C 140.354 104.128,140.307 104.172,140.368 104.227 M107.259 105.180 C 105.544 106.036,103.658 107.566,102.711 108.868 C 101.735 110.209,100.834 111.841,100.985 111.993 C 101.036 112.044,101.407 111.457,101.809 110.689 C 102.780 108.836,104.934 106.749,107.061 105.603 C 108.854 104.637,109.009 104.305,107.259 105.180 M133.807 105.503 C 135.816 106.539,138.180 108.894,139.258 110.934 C 139.718 111.804,140.015 112.217,139.917 111.851 C 139.267 109.413,134.211 104.564,132.432 104.673 C 132.318 104.680,132.936 105.054,133.807 105.503 M159.521 105.434 C 161.287 106.559,162.397 107.847,163.123 109.614 C 163.478 110.478,163.772 110.971,163.775 110.710 C 163.794 109.339,161.561 106.312,159.688 105.170 C 158.352 104.356,158.202 104.594,159.521 105.434 M367.928 105.612 C 367.698 105.842,367.512 106.231,367.514 106.477 C 367.517 106.784,367.623 106.716,367.853 106.261 C 368.267 105.443,368.902 105.291,369.482 105.872 C 369.886 106.275,369.915 108.950,369.847 139.214 C 369.807 157.311,369.857 171.650,369.958 171.079 C 370.487 168.100,370.186 106.272,369.640 105.726 C 368.999 105.084,368.490 105.051,367.928 105.612 M124.567 106.455 C 125.483 106.508,126.981 106.508,127.896 106.455 C 128.812 106.403,128.063 106.361,126.232 106.361 C 124.401 106.361,123.652 106.403,124.567 106.455 M120.806 106.916 C 120.238 107.118,119.639 107.430,119.474 107.609 C 119.246 107.856,119.264 107.883,119.550 107.720 C 119.756 107.602,120.595 107.292,121.414 107.030 C 122.233 106.768,122.663 106.552,122.370 106.551 C 122.077 106.549,121.373 106.714,120.806 106.916 M131.049 107.008 C 131.868 107.282,132.677 107.592,132.847 107.697 C 133.017 107.802,133.156 107.824,133.156 107.746 C 133.156 107.467,131.656 106.834,130.617 106.674 C 129.717 106.535,129.781 106.584,131.049 107.008 M117.290 109.231 C 116.386 110.086,115.511 111.265,114.976 112.353 L 114.115 114.102 113.975 119.301 C 113.814 125.318,113.682 125.714,111.451 126.877 C 110.949 127.139,110.822 127.294,111.109 127.295 C 111.635 127.297,113.319 125.893,113.786 125.063 C 113.984 124.710,114.156 122.564,114.246 119.308 C 114.418 113.082,114.745 112.074,117.446 109.430 C 118.331 108.564,118.985 107.856,118.899 107.856 C 118.813 107.856,118.089 108.475,117.290 109.231 M134.814 109.165 C 135.832 110.097,136.629 111.150,137.211 112.332 L 138.083 114.103 138.159 138.077 C 138.231 160.669,138.185 162.655,137.538 164.746 C 137.453 165.021,137.600 164.887,137.866 164.447 C 138.323 163.691,138.349 162.329,138.349 138.881 L 138.349 114.115 137.635 112.592 C 136.920 111.066,134.853 108.602,133.833 108.059 C 133.534 107.900,133.975 108.397,134.814 109.165 M262.850 111.311 C 272.420 111.466,272.324 111.448,273.285 113.250 C 273.538 113.725,273.751 113.953,273.757 113.756 C 273.775 113.179,272.725 111.876,271.896 111.447 C 271.259 111.118,269.716 111.062,262.663 111.111 L 254.194 111.171 262.850 111.311 M297.285 111.573 C 296.406 112.109,295.423 113.355,295.679 113.610 C 295.758 113.690,295.901 113.510,295.997 113.209 C 296.502 111.616,297.241 111.464,305.193 111.310 L 312.517 111.168 305.326 111.111 C 298.611 111.058,298.080 111.088,297.285 111.573 M313.652 111.240 C 313.983 111.304,314.462 111.302,314.717 111.235 C 314.971 111.168,314.700 111.116,314.115 111.119 C 313.529 111.122,313.320 111.177,313.652 111.240 M163.909 136.352 C 163.909 150.193,163.942 155.856,163.981 148.935 C 164.021 142.014,164.021 130.689,163.981 123.768 C 163.942 116.848,163.909 122.510,163.909 136.352 M252.933 111.844 C 249.692 114.393,251.585 120.373,255.633 120.373 L 256.724 120.373 256.724 122.636 L 256.724 124.900 252.852 124.900 C 247.424 124.900,245.671 125.912,245.406 129.198 L 245.291 130.626 245.529 129.338 C 246.138 126.053,247.370 125.339,252.730 125.166 L 256.858 125.033 256.858 122.636 L 256.858 120.240 255.510 120.104 C 251.506 119.700,250.044 114.214,253.330 111.917 C 253.801 111.588,254.055 111.318,253.894 111.318 C 253.732 111.318,253.300 111.555,252.933 111.844 M316.077 112.031 C 319.214 114.503,317.812 119.707,313.904 120.100 L 312.517 120.240 312.517 122.636 L 312.517 125.033 318.690 125.166 C 325.542 125.314,325.632 125.338,326.964 127.294 C 327.650 128.303,327.774 128.136,327.139 127.060 C 326.035 125.192,325.436 125.042,318.729 124.953 L 312.650 124.872 312.650 122.623 L 312.650 120.373 313.809 120.373 C 317.716 120.373,319.598 114.144,316.383 111.854 C 315.275 111.066,315.031 111.207,316.077 112.031 M100.434 113.556 C 99.992 115.312,100.039 123.892,100.496 124.988 C 100.937 126.042,102.365 127.297,103.125 127.297 C 103.507 127.297,103.314 127.106,102.505 126.683 C 100.584 125.678,100.400 125.046,100.401 119.441 C 100.402 116.804,100.530 114.186,100.687 113.623 C 100.843 113.060,100.918 112.547,100.853 112.481 C 100.787 112.416,100.599 112.900,100.434 113.556 M270.839 113.981 C 271.506 114.648,271.575 116.669,270.953 117.291 C 270.471 117.773,255.345 117.924,254.603 117.454 C 254.384 117.316,254.137 116.585,254.041 115.794 L 253.870 114.381 253.832 115.646 C 253.762 118.016,253.607 117.976,262.834 117.976 C 270.773 117.976,270.811 117.973,271.223 117.384 C 271.812 116.544,271.768 114.448,271.151 113.889 C 270.460 113.264,270.198 113.341,270.839 113.981 M298.177 113.936 C 297.547 114.632,297.577 116.950,298.223 117.535 C 299.044 118.278,314.295 118.195,315.047 117.443 C 316.074 116.416,315.515 113.435,314.299 113.457 C 313.921 113.464,313.934 113.514,314.381 113.767 C 315.158 114.208,315.304 114.521,315.309 115.760 C 315.316 117.746,315.479 117.710,306.658 117.710 C 297.734 117.710,298.003 117.776,298.003 115.575 C 298.003 114.536,298.121 114.195,298.595 113.863 C 298.920 113.635,299.058 113.449,298.902 113.449 C 298.746 113.449,298.420 113.668,298.177 113.936 M273.818 115.712 C 273.731 118.395,272.441 119.850,269.922 120.104 L 268.575 120.240 268.575 122.636 L 268.575 125.033 274.748 125.166 C 280.480 125.290,280.975 125.339,281.672 125.857 C 282.837 126.720,283.622 128.054,283.622 129.168 C 283.622 130.795,282.332 131.304,281.768 129.899 L 281.525 129.294 281.508 129.884 C 281.488 130.581,282.352 131.126,283.100 130.889 C 284.951 130.301,283.821 126.625,281.433 125.469 C 280.344 124.942,279.837 124.900,274.483 124.900 L 268.708 124.900 268.708 122.636 L 268.708 120.373 269.800 120.373 C 272.423 120.373,274.138 118.434,273.966 115.665 L 273.869 114.115 273.818 115.712 M140.741 143.142 C 140.741 158.668,140.773 165.059,140.812 157.344 C 140.851 149.629,140.851 136.926,140.812 129.115 C 140.773 121.304,140.741 127.617,140.741 143.142 M150.062 143.276 C 150.062 158.582,150.094 164.844,150.133 157.190 C 150.172 149.537,150.172 137.014,150.133 129.361 C 150.094 121.708,150.062 127.969,150.062 143.276 M295.370 116.724 C 295.331 117.678,295.934 118.842,296.835 119.550 C 298.048 120.505,298.129 120.158,296.940 119.102 C 296.118 118.373,295.753 117.809,295.605 117.039 C 295.441 116.185,295.395 116.124,295.370 116.724 M260.186 120.283 C 263.070 120.478,266.313 120.490,266.312 120.306 C 266.312 120.196,264.664 120.128,262.650 120.155 C 260.636 120.181,259.527 120.239,260.186 120.283 M298.872 120.298 C 299.277 120.359,299.876 120.357,300.203 120.294 C 300.531 120.231,300.200 120.181,299.467 120.183 C 298.735 120.185,298.467 120.236,298.872 120.298 M302.975 120.299 C 302.904 120.413,304.453 120.470,306.416 120.425 L 309.987 120.344 309.987 122.614 L 309.987 124.885 306.458 124.967 L 302.929 125.050 306.601 125.108 L 310.273 125.166 310.196 122.703 L 310.120 120.240 306.612 120.166 C 304.682 120.125,303.045 120.185,302.975 120.299 M302.886 122.770 C 302.886 123.868,302.933 124.318,302.990 123.768 C 303.048 123.219,303.048 122.320,302.990 121.771 C 302.933 121.222,302.886 121.671,302.886 122.770 M266.045 124.626 C 266.045 124.776,264.564 124.919,262.517 124.967 L 258.988 125.050 262.650 125.108 C 265.753 125.158,266.312 125.106,266.312 124.767 C 266.312 124.547,266.252 124.368,266.178 124.368 C 266.105 124.368,266.045 124.484,266.045 124.626 M189.787 125.101 C 189.710 125.227,190.508 125.855,191.561 126.496 C 195.507 128.900,197.288 130.913,198.407 134.235 C 198.983 135.944,198.985 136.049,198.949 157.187 C 198.924 171.429,199.006 178.768,199.195 179.471 C 199.468 180.487,200.760 181.892,201.419 181.890 C 201.590 181.889,201.355 181.659,200.895 181.379 C 200.435 181.098,199.955 180.709,199.829 180.514 C 199.703 180.319,199.541 170.213,199.467 158.056 L 199.334 135.952 198.725 134.267 C 197.527 130.950,195.857 128.952,192.410 126.711 L 190.013 125.152 198.269 125.233 C 202.810 125.277,206.764 125.410,207.057 125.527 L 207.590 125.739 207.057 125.386 C 206.438 124.976,190.032 124.705,189.787 125.101 M291.972 125.325 C 291.020 125.795,289.760 127.031,290.233 127.031 C 290.405 127.031,290.546 126.919,290.546 126.782 C 290.546 125.764,292.246 125.301,296.538 125.148 L 300.799 124.997 296.804 124.955 C 293.667 124.921,292.630 125.001,291.972 125.325 M208.660 126.401 C 209.243 126.788,210.100 127.461,210.564 127.897 C 211.367 128.653,211.436 128.670,212.021 128.260 C 212.359 128.023,212.513 127.830,212.363 127.830 C 212.213 127.830,211.947 127.974,211.771 128.150 C 211.521 128.399,211.229 128.262,210.452 127.531 C 209.432 126.572,208.170 125.699,207.804 125.699 C 207.691 125.699,208.077 126.015,208.660 126.401 M170.706 126.640 C 169.236 127.096,166.658 128.625,166.492 129.140 C 166.425 129.347,166.657 129.247,167.007 128.916 C 167.923 128.050,169.948 127.073,171.710 126.646 C 172.549 126.442,172.936 126.274,172.570 126.272 C 172.204 126.270,171.365 126.436,170.706 126.640 M180.923 126.632 C 185.571 127.823,189.071 131.390,190.331 136.218 L 190.678 137.550 190.541 136.352 C 190.040 131.961,184.952 126.873,180.559 126.369 C 179.464 126.243,179.496 126.266,180.923 126.632 M214.695 126.738 C 213.916 127.008,213.137 127.369,212.964 127.543 C 212.791 127.716,213.129 127.652,213.715 127.401 C 214.301 127.150,215.379 126.795,216.112 126.611 C 216.893 126.415,217.168 126.271,216.778 126.263 C 216.411 126.255,215.474 126.469,214.695 126.738 M226.466 127.054 C 227.182 127.345,227.816 127.533,227.876 127.473 C 228.015 127.334,225.930 126.493,225.494 126.513 C 225.314 126.521,225.751 126.764,226.466 127.054 M105.537 127.495 C 106.532 127.546,108.090 127.546,108.999 127.494 C 109.908 127.442,109.095 127.400,107.190 127.400 C 105.286 127.401,104.542 127.443,105.537 127.495 M251.198 127.495 C 252.334 127.545,254.191 127.545,255.326 127.495 C 256.461 127.445,255.533 127.404,253.262 127.404 C 250.992 127.404,250.063 127.445,251.198 127.495 M269.774 127.508 C 269.774 127.624,270.331 128.253,271.013 128.906 L 272.253 130.093 271.508 129.087 C 271.099 128.533,270.571 127.968,270.335 127.830 C 270.057 127.667,271.681 127.580,274.967 127.580 C 280.218 127.580,280.526 127.639,281.170 128.762 C 281.338 129.055,281.479 129.139,281.483 128.949 C 281.516 127.561,280.475 127.297,274.979 127.297 C 272.116 127.297,269.774 127.392,269.774 127.508 M295.286 127.495 C 296.501 127.545,298.418 127.544,299.547 127.495 C 300.675 127.445,299.680 127.404,297.337 127.405 C 294.993 127.405,294.070 127.446,295.286 127.495 M313.715 127.485 C 313.715 127.589,314.129 128.098,314.635 128.617 C 315.141 129.136,315.918 130.220,316.361 131.025 C 317.187 132.526,317.432 132.699,316.851 131.371 C 316.408 130.356,314.521 127.843,314.149 127.772 C 313.984 127.740,316.125 127.646,318.908 127.563 L 323.968 127.412 318.842 127.355 C 316.022 127.323,313.715 127.382,313.715 127.485 M228.762 128.018 C 230.486 129.228,232.698 131.648,233.507 133.207 C 233.986 134.131,234.300 134.587,234.205 134.221 C 233.706 132.296,230.809 128.842,228.951 127.958 C 228.106 127.556,228.103 127.557,228.762 128.018 M248.222 128.265 C 246.619 130.302,248.346 132.091,251.917 132.091 C 252.978 132.091,253.823 132.224,254.024 132.423 C 254.293 132.690,254.324 132.664,254.182 132.290 C 254.035 131.906,253.667 131.824,252.075 131.824 C 248.437 131.824,246.893 130.292,248.488 128.265 C 248.792 127.879,248.980 127.563,248.907 127.563 C 248.834 127.563,248.525 127.879,248.222 128.265 M292.322 127.897 C 292.071 128.081,291.810 128.710,291.743 129.295 C 291.626 130.309,291.631 130.318,291.851 129.483 C 291.977 129.001,292.293 128.372,292.553 128.085 C 293.092 127.490,292.991 127.408,292.322 127.897 M324.567 128.073 C 324.897 128.390,325.166 128.944,325.166 129.305 C 325.166 130.607,326.587 131.431,327.411 130.607 C 328.030 129.988,327.920 129.889,327.162 130.385 C 326.313 130.942,325.816 130.584,325.426 129.135 C 325.263 128.530,324.905 127.979,324.558 127.801 L 323.968 127.498 324.567 128.073 M289.376 128.251 C 288.522 130.476,290.379 133.725,292.721 134.102 C 293.598 134.244,293.596 134.241,292.580 133.855 C 290.436 133.041,289.300 131.219,289.550 128.996 C 289.689 127.763,289.641 127.559,289.376 128.251 M110.698 128.782 C 109.844 128.989,108.945 129.288,108.700 129.446 C 108.318 129.694,108.330 129.709,108.788 129.558 C 111.414 128.690,122.237 128.157,122.237 128.895 C 122.237 129.041,122.136 129.161,122.014 129.161 C 120.914 129.161,115.888 135.326,115.174 137.550 C 115.080 137.843,115.422 137.327,115.935 136.404 C 117.334 133.887,118.883 132.013,120.930 130.358 C 121.942 129.541,122.770 128.757,122.770 128.617 C 122.770 128.200,112.523 128.340,110.698 128.782 M172.836 128.533 C 171.932 128.706,169.871 129.481,169.992 129.602 C 170.046 129.656,170.618 129.509,171.263 129.276 C 173.480 128.477,178.026 128.483,181.625 129.289 C 181.991 129.371,181.811 129.240,181.225 128.998 C 180.165 128.560,174.370 128.239,172.836 128.533 M216.554 128.663 C 214.902 129.053,215.352 129.233,217.062 128.866 C 218.508 128.556,224.129 128.662,225.166 129.018 L 225.699 129.201 225.166 128.859 C 224.490 128.423,218.176 128.280,216.554 128.663 M340.479 128.634 C 335.750 129.584,331.205 133.433,330.111 137.417 C 330.010 137.783,330.353 137.229,330.872 136.185 C 333.516 130.868,337.307 128.897,345.273 128.698 C 352.250 128.523,352.003 128.436,349.814 130.301 C 347.258 132.479,343.858 137.023,344.387 137.552 C 344.441 137.606,344.882 136.886,345.366 135.951 C 346.319 134.114,348.631 131.450,350.567 129.960 C 352.570 128.418,352.423 128.359,346.671 128.391 C 343.852 128.407,341.065 128.517,340.479 128.634 M213.715 129.772 C 213.066 130.139,212.640 130.579,212.624 130.899 C 212.607 131.231,212.637 131.266,212.704 130.996 C 212.762 130.760,213.373 130.254,214.062 129.871 C 214.750 129.488,215.193 129.173,215.047 129.172 C 214.900 129.171,214.301 129.441,213.715 129.772 M226.989 129.857 C 228.636 130.714,230.405 132.483,231.262 134.130 C 231.631 134.839,231.938 135.264,231.945 135.074 C 231.999 133.569,227.412 129.085,225.909 129.174 C 225.794 129.180,226.279 129.488,226.989 129.857 M182.423 129.516 C 182.423 129.575,182.922 129.953,183.531 130.356 C 184.889 131.255,185.731 132.130,186.723 133.674 C 187.141 134.325,187.483 134.738,187.483 134.592 C 187.483 134.005,185.888 131.863,184.789 130.974 C 183.656 130.058,182.423 129.298,182.423 129.516 M166.476 129.994 C 166.394 131.145,167.940 131.268,169.141 130.206 C 169.764 129.655,169.759 129.655,168.779 130.222 C 167.700 130.846,166.823 130.761,166.626 130.014 C 166.522 129.618,166.503 129.615,166.476 129.994 M269.355 130.493 C 271.352 133.123,271.238 131.946,271.238 150.067 C 271.238 166.261,271.237 166.316,270.650 167.585 C 270.327 168.286,270.169 168.793,270.300 168.712 C 271.527 167.954,271.638 166.406,271.638 150.067 C 271.638 132.563,271.666 132.831,269.606 130.598 C 268.711 129.629,268.694 129.622,269.355 130.493 M313.210 130.506 C 313.591 131.011,314.164 131.904,314.483 132.490 C 314.837 133.139,314.994 133.295,314.885 132.889 C 314.682 132.129,313.339 130.087,312.846 129.787 C 312.665 129.677,312.829 130.001,313.210 130.506 M106.244 130.726 C 104.214 132.039,100.932 136.078,100.932 137.262 C 100.932 137.414,101.464 136.630,102.114 135.520 C 103.277 133.534,105.359 131.366,106.841 130.600 C 107.253 130.387,107.590 130.156,107.590 130.086 C 107.590 129.875,107.472 129.931,106.244 130.726 M272.937 132.079 C 273.321 133.092,273.670 133.825,273.712 133.708 C 273.814 133.424,272.727 130.539,272.454 130.370 C 272.336 130.297,272.553 131.066,272.937 132.079 M245.550 131.127 C 245.522 132.462,248.597 134.482,250.666 134.486 L 251.398 134.487 251.425 150.133 C 251.439 158.738,251.529 166.057,251.624 166.396 C 251.780 166.949,251.758 144.769,251.596 137.191 L 251.531 134.169 250.114 134.059 C 247.979 133.893,246.935 133.227,245.983 131.425 C 245.669 130.831,245.558 130.754,245.550 131.127 M293.119 131.824 C 293.192 131.897,294.290 132.017,295.560 132.091 L 297.870 132.224 297.771 137.217 L 297.673 142.210 299.103 142.162 L 300.533 142.114 299.232 142.013 L 297.932 141.912 298.057 137.131 C 298.143 133.865,298.091 132.276,297.893 132.115 C 297.595 131.872,292.882 131.585,293.119 131.824 M213.177 156.192 C 213.177 168.788,213.209 173.902,213.249 167.557 C 213.289 161.211,213.289 150.904,213.249 144.654 C 213.209 138.403,213.177 143.595,213.177 156.192 M317.577 150.041 C 317.577 159.199,317.658 166.486,317.758 166.235 C 317.989 165.653,317.981 134.828,317.750 134.006 C 317.654 133.667,317.577 140.883,317.577 150.041 M294.462 134.413 C 295.306 134.518,295.316 134.536,295.409 136.168 L 295.503 137.816 295.555 136.019 L 295.606 134.221 294.607 134.264 C 293.642 134.305,293.637 134.310,294.462 134.413 M253.853 138.415 L 253.795 142.210 255.326 142.161 L 256.858 142.112 255.467 142.014 L 254.076 141.917 253.994 138.269 L 253.912 134.621 253.853 138.415 M273.893 150.067 C 273.893 158.562,273.927 162.076,273.968 157.875 C 274.009 153.675,274.009 146.724,273.968 142.429 C 273.927 138.134,273.893 141.571,273.893 150.067 M315.438 150.067 C 315.438 158.415,315.471 161.792,315.513 157.571 C 315.554 153.349,315.554 146.519,315.512 142.391 C 315.471 138.264,315.437 141.718,315.438 150.067 M187.964 136.751 C 188.066 137.483,188.149 143.296,188.149 149.667 C 188.149 156.039,188.066 161.851,187.964 162.583 C 187.805 163.730,187.824 163.822,188.097 163.249 C 188.330 162.761,188.415 159.127,188.415 149.667 C 188.415 140.207,188.330 136.573,188.097 136.085 C 187.824 135.512,187.805 135.604,187.964 136.751 M234.830 158.193 C 234.881 172.837,234.814 180.663,234.634 181.204 C 234.383 181.959,234.393 181.983,234.757 181.507 C 235.181 180.954,235.350 139.365,234.938 137.043 C 234.837 136.471,234.788 145.988,234.830 158.193 M114.465 139.321 C 113.944 141.045,113.960 163.015,114.483 164.256 C 115.010 165.505,115.095 165.179,114.637 163.660 C 114.081 161.812,114.076 142.310,114.631 139.949 C 115.074 138.067,114.967 137.661,114.465 139.321 M232.607 145.539 C 232.606 149.494,232.644 151.149,232.689 149.217 C 232.734 147.285,232.735 144.049,232.689 142.027 C 232.644 140.004,232.607 141.585,232.607 145.539 M100.301 139.348 C 100.085 140.155,100.140 171.474,100.359 172.253 C 100.455 172.591,100.533 165.191,100.533 155.808 C 100.533 146.425,100.517 138.748,100.497 138.748 C 100.478 138.748,100.389 139.018,100.301 139.348 M343.140 141.744 C 342.729 144.505,343.124 163.072,343.614 164.048 C 343.872 164.561,344.010 164.740,343.922 164.447 C 343.380 162.640,343.249 159.616,343.325 150.620 C 343.413 140.119,343.409 139.935,343.140 141.744 M329.286 155.659 C 329.286 163.862,329.319 167.256,329.361 163.201 C 329.402 159.147,329.402 152.436,329.361 148.288 C 329.319 144.140,329.286 147.457,329.286 155.659 M253.858 154.527 L 253.922 165.513 253.995 154.674 L 254.067 143.836 255.462 143.738 L 256.858 143.640 255.326 143.591 L 253.795 143.542 253.858 154.527 M297.792 155.060 L 297.870 166.578 298.611 167.985 C 299.712 170.074,303.384 173.136,304.023 172.497 C 304.080 172.440,303.523 172.111,302.785 171.765 C 298.405 169.714,298.003 168.281,298.003 154.731 L 298.003 143.836 299.401 143.738 L 300.799 143.640 299.257 143.591 L 297.715 143.542 297.792 155.060 M164.184 163.116 C 164.794 166.264,168.281 170.004,171.123 170.557 C 171.553 170.640,171.724 170.634,171.505 170.542 C 167.816 168.996,165.891 167.140,164.655 163.937 C 164.311 163.046,164.099 162.676,164.184 163.116 M295.427 164.181 C 295.428 165.206,295.476 165.593,295.534 165.041 C 295.592 164.488,295.591 163.649,295.532 163.176 C 295.473 162.704,295.426 163.156,295.427 164.181 M366.876 164.151 C 366.374 166.148,364.254 168.601,361.915 169.890 C 360.255 170.805,360.300 170.998,361.975 170.144 C 364.288 168.964,367.576 164.912,367.182 163.728 C 367.119 163.540,366.981 163.730,366.876 164.151 M344.075 165.353 C 344.075 165.773,346.406 168.694,347.050 169.081 C 347.400 169.290,347.131 168.873,346.433 168.124 C 345.753 167.393,345.001 166.416,344.762 165.954 C 344.330 165.118,344.075 164.895,344.075 165.353 M186.676 165.928 C 185.935 167.312,184.083 168.955,182.298 169.813 C 181.277 170.304,180.595 170.706,180.783 170.706 C 181.431 170.706,183.983 169.306,184.883 168.456 C 186.059 167.348,187.332 165.672,187.143 165.483 C 187.061 165.401,186.851 165.601,186.676 165.928 M115.741 166.669 C 116.683 168.334,119.550 170.478,121.305 170.829 C 121.828 170.934,121.657 170.800,120.811 170.441 C 118.986 169.668,117.315 168.461,116.467 167.303 C 115.421 165.873,115.164 165.649,115.741 166.669 M136.358 166.834 C 135.684 167.924,134.068 169.254,132.375 170.113 C 131.706 170.452,131.458 170.651,131.824 170.556 C 132.746 170.316,134.760 169.013,135.591 168.120 C 136.367 167.286,137.287 165.912,137.070 165.912 C 136.992 165.912,136.671 166.327,136.358 166.834 M254.224 166.711 C 254.785 168.894,258.763 173.017,259.549 172.231 C 259.610 172.170,259.176 171.903,258.586 171.636 C 257.214 171.018,255.526 169.188,254.699 167.423 C 254.344 166.665,254.130 166.345,254.224 166.711 M314.303 167.912 C 313.973 168.591,313.826 169.070,313.977 168.977 C 314.361 168.740,315.097 167.262,314.991 166.943 C 314.942 166.797,314.633 167.233,314.303 167.912 M272.786 168.557 C 272.473 169.299,272.263 169.907,272.321 169.907 C 272.527 169.907,273.531 167.731,273.445 167.472 C 273.396 167.326,273.100 167.815,272.786 168.557 M296.019 168.043 C 296.471 169.749,299.175 172.944,300.789 173.679 C 301.368 173.943,301.429 174.104,301.310 175.071 C 301.148 176.396,301.578 177.303,302.713 178.029 C 303.439 178.493,303.570 178.761,303.732 180.110 C 303.834 180.961,303.972 181.603,304.039 181.536 C 304.489 181.086,303.757 178.194,303.155 178.043 C 302.152 177.791,301.408 176.383,301.575 175.054 C 301.711 173.978,301.679 173.922,300.591 173.279 C 299.035 172.360,297.900 171.110,296.789 169.095 C 296.269 168.150,295.922 167.676,296.019 168.043 M252.200 168.120 C 252.183 169.237,255.240 172.863,256.941 173.742 C 258.214 174.401,257.964 174.069,256.459 173.103 C 255.046 172.196,253.952 170.969,252.868 169.072 C 252.503 168.433,252.202 168.004,252.200 168.120 M316.169 169.595 C 315.566 170.668,313.174 173.070,312.177 173.603 C 311.813 173.798,311.599 174.148,311.621 174.510 L 311.657 175.100 311.771 174.513 C 311.833 174.191,312.087 173.862,312.335 173.784 C 313.454 173.429,317.288 169.130,316.864 168.706 C 316.795 168.637,316.483 169.038,316.169 169.595 M268.965 170.050 C 268.462 170.569,267.341 171.348,266.473 171.781 C 265.605 172.215,265.038 172.570,265.213 172.570 C 265.902 172.570,268.098 171.227,269.095 170.196 C 269.674 169.598,270.087 169.108,270.013 169.108 C 269.939 169.108,269.467 169.532,268.965 170.050 M312.517 170.342 C 311.931 170.861,311.032 171.510,310.519 171.783 C 310.007 172.057,309.714 172.285,309.868 172.292 C 310.294 172.310,312.433 170.872,313.162 170.077 C 314.054 169.106,313.785 169.216,312.517 170.342 M347.803 169.505 C 347.803 169.686,349.966 170.762,350.087 170.641 C 350.142 170.586,349.651 170.279,348.995 169.960 C 348.340 169.642,347.803 169.437,347.803 169.505 M271.113 171.229 C 270.653 171.810,269.684 172.669,268.960 173.138 C 267.632 173.998,267.507 174.285,267.927 175.499 C 268.101 176.004,268.123 175.904,268.018 175.083 C 267.894 174.117,267.952 173.967,268.560 173.691 C 269.364 173.324,271.562 171.346,271.931 170.656 C 272.358 169.858,272.000 170.108,271.113 171.229 M122.836 171.156 C 123.093 171.223,123.512 171.223,123.768 171.156 C 124.025 171.089,123.815 171.034,123.302 171.034 C 122.790 171.034,122.580 171.089,122.836 171.156 M128.695 171.156 C 128.951 171.223,129.371 171.223,129.627 171.156 C 129.883 171.089,129.674 171.034,129.161 171.034 C 128.648 171.034,128.439 171.089,128.695 171.156 M150.337 172.269 C 150.417 172.909,150.663 173.748,150.884 174.133 L 151.284 174.834 151.093 174.168 C 150.987 173.802,150.741 172.963,150.546 172.304 L 150.191 171.105 150.337 172.269 M190.175 172.437 C 190.128 173.180,188.916 175.716,188.091 176.798 C 187.711 177.295,187.568 177.646,187.772 177.578 C 188.322 177.395,190.495 173.031,190.340 172.421 C 190.213 171.921,190.207 171.922,190.175 172.437 M261.725 172.765 C 262.351 172.822,263.310 172.821,263.855 172.763 C 264.401 172.706,263.888 172.660,262.716 172.661 C 261.545 172.662,261.098 172.709,261.725 172.765 M305.666 172.765 C 306.293 172.822,307.251 172.821,307.797 172.763 C 308.342 172.706,307.830 172.660,306.658 172.661 C 305.486 172.662,305.040 172.709,305.666 172.765 M139.826 173.842 C 138.890 176.453,136.679 178.933,133.945 180.439 C 132.998 180.961,132.523 181.308,132.889 181.211 C 135.653 180.479,141.407 174.074,140.297 172.965 C 140.234 172.902,140.022 173.296,139.826 173.842 M368.478 174.880 C 367.068 177.754,364.971 179.726,362.022 180.950 C 361.159 181.309,360.643 181.607,360.876 181.613 C 363.225 181.676,370.511 174.683,369.328 173.501 C 369.264 173.436,368.881 174.057,368.478 174.880 M329.967 173.711 C 329.931 174.771,333.202 179.076,334.614 179.826 C 334.911 179.984,334.371 179.344,333.414 178.405 C 332.458 177.466,331.293 175.979,330.825 175.100 C 330.357 174.221,329.971 173.596,329.967 173.711 M100.936 173.977 C 100.899 175.879,105.533 180.542,108.123 181.208 C 108.489 181.302,108.135 181.045,107.337 180.636 C 105.332 179.610,102.972 177.352,101.867 175.403 C 101.357 174.504,100.938 173.862,100.936 173.977 M151.691 175.817 C 152.211 176.823,154.618 179.424,155.387 179.811 C 155.683 179.960,155.311 179.534,154.560 178.864 C 153.810 178.194,152.808 177.043,152.336 176.307 C 151.365 174.794,151.030 174.540,151.691 175.817 M259.773 175.256 C 259.463 175.758,260.077 176.072,261.150 175.962 L 262.184 175.855 261.036 175.810 C 258.798 175.723,260.224 175.233,262.716 175.233 C 265.027 175.233,266.689 175.719,264.663 175.802 C 264.004 175.829,263.938 175.868,264.400 175.956 C 265.262 176.120,265.800 175.863,265.613 175.376 C 265.420 174.874,260.076 174.765,259.773 175.256 M303.773 175.144 C 303.382 175.535,303.626 176.030,304.194 176.001 C 304.650 175.978,304.681 175.941,304.324 175.848 C 303.172 175.547,304.373 175.233,306.674 175.233 C 308.982 175.233,310.028 175.567,308.589 175.844 C 308.075 175.943,308.094 175.965,308.722 175.996 C 309.289 176.024,309.454 175.912,309.454 175.499 C 309.454 174.961,304.279 174.638,303.773 175.144 M311.606 176.329 C 311.594 176.565,311.255 177.092,310.852 177.500 C 310.226 178.134,310.205 178.196,310.713 177.929 C 311.401 177.568,311.943 176.677,311.756 176.217 C 311.680 176.030,311.618 176.076,311.606 176.329 M257.524 176.462 C 257.523 176.909,258.582 178.165,258.941 178.141 C 259.140 178.128,259.125 178.069,258.900 177.979 C 258.705 177.901,258.315 177.461,258.035 177.001 C 257.755 176.541,257.525 176.299,257.524 176.462 M267.306 177.165 L 266.837 178.029 267.373 177.401 C 267.829 176.866,268.073 176.294,267.843 176.300 C 267.806 176.301,267.565 176.690,267.306 177.165 M185.752 179.140 C 184.874 179.814,183.675 180.581,183.089 180.843 C 182.503 181.106,182.211 181.329,182.439 181.339 C 183.006 181.365,185.839 179.643,186.812 178.681 C 187.928 177.578,187.607 177.717,185.752 179.140 M265.424 178.340 C 265.326 178.438,265.267 179.127,265.293 179.871 L 265.339 181.225 265.444 180.032 C 265.502 179.376,265.676 178.687,265.830 178.501 C 266.118 178.154,265.754 178.010,265.424 178.340 M309.340 178.495 C 309.138 179.184,308.346 186.198,308.457 186.309 C 308.587 186.438,309.454 180.206,309.454 179.147 C 309.454 178.776,309.604 178.413,309.787 178.339 C 310.048 178.234,310.046 178.200,309.779 178.183 C 309.591 178.172,309.393 178.312,309.340 178.495 M212.599 180.024 C 212.438 180.450,211.904 181.044,211.413 181.344 C 210.387 181.970,210.580 182.080,211.693 181.504 C 212.367 181.156,213.292 179.648,213.007 179.362 C 212.944 179.300,212.760 179.597,212.599 180.024 M156.059 180.204 C 156.059 180.407,158.981 181.671,159.239 181.579 C 159.373 181.531,158.712 181.175,157.771 180.788 C 156.829 180.401,156.059 180.138,156.059 180.204 M259.920 180.326 C 259.920 181.050,260.753 187.074,260.870 187.190 C 261.060 187.381,261.006 186.685,260.568 183.349 C 260.197 180.515,259.920 179.225,259.920 180.326 M335.286 180.165 C 335.286 180.392,338.020 181.622,338.482 181.603 C 338.702 181.594,338.451 181.428,337.924 181.235 C 337.398 181.041,336.589 180.687,336.127 180.448 C 335.665 180.209,335.286 180.081,335.286 180.165 M232.490 181.156 C 232.490 181.664,233.419 182.259,233.903 182.062 C 234.081 181.990,234.023 181.924,233.770 181.912 C 233.522 181.900,233.133 181.624,232.905 181.299 C 232.572 180.824,232.490 180.796,232.490 181.156 M115.912 182.090 C 118.366 182.134,122.380 182.134,124.834 182.090 C 127.287 182.046,125.280 182.010,120.373 182.010 C 115.466 182.010,113.459 182.046,115.912 182.090 M165.979 182.090 C 168.432 182.134,172.447 182.134,174.900 182.090 C 177.354 182.046,175.346 182.010,170.439 182.010 C 165.533 182.010,163.525 182.046,165.979 182.090 M203.928 182.089 C 205.136 182.138,207.114 182.138,208.322 182.089 C 209.531 182.040,208.542 181.999,206.125 181.999 C 203.708 181.999,202.720 182.040,203.928 182.089 M345.206 182.090 C 347.660 182.134,351.674 182.134,354.128 182.090 C 356.581 182.046,354.574 182.010,349.667 182.010 C 344.760 182.010,342.753 182.046,345.206 182.090 M304.190 182.956 C 304.190 183.469,304.244 183.678,304.311 183.422 C 304.378 183.166,304.378 182.746,304.311 182.490 C 304.244 182.234,304.190 182.443,304.190 182.956 M68.975 187.542 C 68.975 187.644,71.491 190.229,74.567 193.286 L 80.160 198.844 80.160 202.815 L 80.160 206.786 74.765 201.396 C 71.797 198.431,69.252 196.005,69.108 196.005 C 68.964 196.005,71.361 198.522,74.434 201.598 C 77.507 204.674,80.113 207.190,80.224 207.190 C 80.335 207.190,80.426 205.302,80.426 202.994 L 80.426 198.797 74.700 193.076 C 71.551 189.929,68.975 187.439,68.975 187.542 M263.818 190.739 C 263.379 194.025,263.292 195.123,263.488 194.918 C 263.658 194.740,264.507 187.721,264.375 187.589 C 264.310 187.523,264.059 188.940,263.818 190.739 M126.374 188.743 C 122.811 190.731,122.291 195.432,125.338 198.114 C 126.456 199.098,127.932 199.720,128.292 199.360 C 128.380 199.272,128.215 199.201,127.926 199.201 C 125.333 199.201,122.891 195.002,123.830 192.158 C 124.921 188.853,126.421 188.295,134.221 188.290 C 139.824 188.286,141.401 188.385,144.208 188.921 C 144.698 189.014,144.544 188.903,143.808 188.632 C 142.826 188.270,141.268 188.174,135.153 188.098 L 127.696 188.005 126.374 188.743 M304.978 188.948 C 304.970 189.387,305.179 191.185,305.443 192.943 C 305.708 194.700,305.932 195.779,305.940 195.340 C 305.949 194.900,305.740 193.103,305.475 191.345 C 305.211 189.587,304.987 188.509,304.978 188.948 M147.670 190.353 C 148.696 190.899,149.924 191.623,150.400 191.962 C 150.876 192.302,151.265 192.482,151.265 192.362 C 151.264 192.101,149.534 191.002,147.612 190.042 C 145.505 188.989,145.549 189.225,147.670 190.353 M261.580 192.810 C 261.580 193.322,261.635 193.532,261.702 193.276 C 261.769 193.019,261.769 192.600,261.702 192.344 C 261.635 192.087,261.580 192.297,261.580 192.810 M153.010 194.117 C 155.215 196.557,156.618 198.835,157.698 201.728 C 157.983 202.492,158.135 202.721,158.053 202.264 C 157.706 200.311,155.542 196.595,153.592 194.599 C 152.532 193.515,152.270 193.297,153.010 194.117 M307.054 195.672 C 306.858 197.320,306.598 198.668,306.478 198.668 C 306.357 198.668,306.258 198.908,306.258 199.201 C 306.258 200.057,306.718 199.813,306.885 198.868 C 307.248 196.817,307.629 193.327,307.525 193.015 C 307.462 192.829,307.250 194.025,307.054 195.672 M261.811 194.322 C 261.780 194.996,262.277 198.840,262.488 199.554 C 262.837 200.733,262.771 199.633,262.323 196.803 C 262.057 195.119,261.826 194.003,261.811 194.322 M142.344 200.361 C 144.904 201.557,146.462 203.445,147.183 206.227 C 147.533 207.578,147.535 207.580,147.396 206.434 C 147.061 203.664,143.552 199.738,141.411 199.739 C 141.192 199.739,141.611 200.019,142.344 200.361 M158.798 207.856 C 158.800 208.589,158.852 208.857,158.913 208.452 C 158.974 208.047,158.972 207.448,158.909 207.120 C 158.846 206.793,158.796 207.124,158.798 207.856 M147.165 209.609 C 146.814 211.802,145.394 213.820,143.007 215.519 L 142.344 215.991 143.142 215.612 C 145.070 214.698,147.063 211.907,147.431 209.609 C 147.526 209.011,147.545 208.522,147.472 208.522 C 147.398 208.522,147.260 209.011,147.165 209.609 M157.420 214.943 C 157.032 216.055,157.217 216.240,157.656 215.180 C 157.842 214.731,157.932 214.302,157.856 214.226 C 157.780 214.150,157.584 214.472,157.420 214.943 M82.646 215.979 L 82.690 216.644 111.322 216.712 C 136.136 216.771,140.114 216.727,141.149 216.382 C 141.806 216.163,142.044 216.070,141.678 216.175 C 141.312 216.280,127.928 216.400,111.937 216.443 L 82.861 216.520 82.732 215.917 C 82.616 215.377,82.607 215.383,82.646 215.979 M156.651 216.843 C 156.489 217.173,156.033 217.971,155.637 218.615 C 155.240 219.259,155.042 219.709,155.195 219.614 C 155.547 219.396,157.197 216.495,157.051 216.350 C 156.992 216.291,156.812 216.513,156.651 216.843 M36.925 220.194 C 36.366 220.812,36.324 223.380,36.862 224.117 C 37.250 224.648,51.286 225.230,50.958 224.700 C 50.890 224.591,47.864 224.501,44.233 224.501 C 36.625 224.501,36.751 224.539,36.751 222.200 C 36.751 220.031,36.827 219.994,41.411 219.903 L 45.406 219.825 41.386 219.766 C 37.785 219.713,37.320 219.758,36.925 220.194 M153.540 221.320 C 152.830 222.061,151.698 223.104,151.025 223.637 C 149.390 224.932,149.101 225.234,150.067 224.637 C 151.344 223.848,153.257 222.165,154.173 221.026 C 155.322 219.595,155.089 219.704,153.540 221.320 M32.034 222.237 C 32.036 222.969,32.087 223.237,32.148 222.833 C 32.210 222.428,32.208 221.829,32.145 221.501 C 32.082 221.173,32.032 221.505,32.034 222.237 M32.490 224.718 C 32.490 225.782,35.538 227.986,36.940 227.936 C 37.588 227.913,37.554 227.879,36.676 227.672 C 35.083 227.297,34.139 226.697,33.284 225.516 C 32.847 224.914,32.490 224.554,32.490 224.718 M147.537 225.832 C 146.731 226.258,146.163 226.612,146.275 226.619 C 146.599 226.639,148.861 225.527,149.020 225.269 C 149.219 224.947,149.196 224.956,147.537 225.832 M143.431 227.364 C 143.321 227.473,127.213 227.626,107.634 227.702 L 72.037 227.841 107.590 227.835 C 134.457 227.831,143.305 227.752,143.808 227.514 C 144.224 227.316,144.316 227.191,144.052 227.181 C 143.820 227.171,143.541 227.254,143.431 227.364 M38.149 227.880 C 38.405 227.947,38.825 227.947,39.081 227.880 C 39.338 227.813,39.128 227.758,38.615 227.758 C 38.103 227.758,37.893 227.813,38.149 227.880 M42.291 227.895 C 43.800 227.943,46.197 227.943,47.617 227.895 C 49.038 227.847,47.803 227.808,44.874 227.808 C 41.944 227.809,40.782 227.848,42.291 227.895 M71.039 227.880 C 70.691 227.971,70.583 228.251,70.612 228.981 C 70.649 229.868,70.663 229.887,70.769 229.174 C 70.832 228.741,71.084 228.236,71.328 228.050 C 71.795 227.695,71.780 227.686,71.039 227.880 M53.862 228.153 C 54.555 228.258,54.594 228.340,54.594 229.680 L 54.594 231.097 51.989 231.201 C 47.884 231.366,47.217 232.109,47.451 236.252 C 47.559 238.164,48.337 239.453,49.349 239.396 C 49.524 239.386,49.418 239.257,49.113 239.109 C 47.483 238.318,47.020 234.011,48.402 232.493 C 49.119 231.706,49.194 231.687,51.931 231.623 L 54.727 231.558 54.806 229.760 L 54.885 227.963 54.007 228.003 C 53.201 228.039,53.189 228.052,53.862 228.153 M70.663 230.759 L 70.706 231.558 73.369 231.634 C 75.517 231.695,76.172 231.812,76.757 232.236 C 77.162 232.529,77.424 232.611,77.351 232.420 C 77.055 231.650,75.982 231.316,73.450 231.208 C 71.074 231.106,70.858 231.052,70.745 230.529 C 70.672 230.192,70.638 230.286,70.663 230.759 M61.252 230.544 C 61.252 231.038,61.985 231.158,64.980 231.158 C 67.975 231.158,68.708 231.038,68.708 230.544 C 68.708 230.349,68.603 230.359,68.389 230.573 C 68.177 230.784,67.028 230.892,64.980 230.892 C 62.932 230.892,61.783 230.784,61.571 230.573 C 61.357 230.359,61.252 230.349,61.252 230.544 M77.853 235.419 C 77.853 236.518,77.900 236.967,77.957 236.418 C 78.014 235.869,78.014 234.970,77.957 234.421 C 77.900 233.872,77.853 234.321,77.853 235.419 M52.847 234.737 C 52.382 235.082,52.438 235.095,53.395 234.868 C 54.659 234.569,63.166 234.609,64.314 234.920 C 65.056 235.121,65.076 235.108,64.596 234.745 C 63.847 234.179,53.610 234.172,52.847 234.737 M76.787 238.516 C 76.324 239.010,76.038 239.414,76.152 239.414 C 76.434 239.414,77.763 238.066,77.763 237.780 C 77.763 237.476,77.762 237.477,76.787 238.516 " stroke="none" fill="#bf97d5" fill-rule="evenodd"></path><path id="path4" d="M257.057 127.473 C 256.800 127.577,256.738 129.283,256.786 134.976 L 256.848 142.344 256.924 135.175 C 256.974 130.437,257.099 127.886,257.294 127.652 C 257.606 127.276,257.585 127.260,257.057 127.473 M300.659 128.429 C 300.655 128.905,300.626 132.200,300.593 135.752 C 300.560 139.304,300.619 142.211,300.724 142.210 C 300.829 142.210,300.949 138.915,300.990 134.887 C 301.032 130.859,300.975 127.563,300.866 127.563 C 300.756 127.563,300.663 127.953,300.659 128.429 M268.442 140.848 C 268.442 155.292,268.565 154.993,262.618 154.993 L 259.373 154.993 258.188 153.808 L 257.003 152.623 256.924 148.016 L 256.844 143.409 256.784 148.044 C 256.699 154.636,257.219 155.260,262.797 155.260 C 266.344 155.260,267.244 154.921,268.243 153.211 C 268.723 152.389,269.042 130.205,268.581 129.744 C 268.505 129.667,268.442 134.664,268.442 140.848 M312.447 140.825 C 312.377 153.235,312.412 152.967,310.686 154.284 C 309.802 154.958,309.602 154.993,306.666 154.993 C 301.447 154.993,300.903 154.307,300.903 147.718 C 300.903 145.388,300.829 143.556,300.739 143.646 C 300.649 143.736,300.584 145.772,300.596 148.170 C 300.627 154.603,301.195 155.260,306.733 155.259 C 312.800 155.257,312.676 155.561,312.583 140.976 L 312.511 129.561 312.447 140.825 M48.336 138.245 C 46.627 138.654,43.652 140.613,44.740 140.613 C 44.887 140.613,45.007 140.511,45.007 140.386 C 45.007 140.261,45.809 139.752,46.790 139.254 L 48.573 138.349 55.525 138.349 L 62.477 138.349 64.272 139.260 C 65.565 139.916,66.324 140.521,66.990 141.428 C 68.778 143.865,68.708 142.942,68.708 164.081 C 68.708 174.609,68.798 183.222,68.908 183.222 C 69.018 183.222,69.048 174.384,68.975 163.582 L 68.842 143.941 68.241 142.743 C 67.382 141.029,65.899 139.575,64.194 138.775 C 62.585 138.021,50.905 137.630,48.336 138.245 M68.708 191.700 C 68.708 194.068,68.798 196.005,68.908 196.005 C 69.144 196.005,69.107 187.793,68.870 187.557 C 68.781 187.467,68.708 189.332,68.708 191.700 M46.988 192.122 C 46.490 192.486,46.469 192.986,46.401 205.904 C 46.336 218.082,46.289 219.338,45.884 219.640 C 45.481 219.941,45.494 219.973,46.021 219.973 C 46.446 219.973,46.607 219.810,46.614 219.374 C 46.619 219.045,46.649 212.939,46.680 205.806 C 46.726 195.580,46.811 192.763,47.084 192.490 C 47.510 192.063,52.563 192.004,52.980 192.420 C 53.284 192.725,53.407 223.014,53.107 223.796 C 53.008 224.055,52.504 224.307,51.885 224.406 C 51.306 224.498,50.933 224.675,51.057 224.798 C 51.408 225.149,53.225 224.535,53.532 223.962 C 54.115 222.872,53.747 192.562,53.145 192.122 C 52.424 191.595,47.710 191.595,46.988 192.122 " stroke="none" fill="#f3d48c" fill-rule="evenodd"></path></g></svg>