<svg width="103" height="33" viewBox="0 0 103 33" fill="none" xmlns="http://www.w3.org/2000/svg">
  <path d="M26.9604 14.5311C26.9604 14.5311 26.9798 14.6329 27.0186 14.8366C27.0622 15.0354 27.1107 15.2754 27.164 15.5566C27.2174 15.8378 27.2659 16.1117 27.3095 16.3784C27.3531 16.6451 27.3822 16.8511 27.3968 16.9966C27.4065 17.1178 27.4113 17.2366 27.4113 17.3529C27.4113 17.9202 27.3289 18.4269 27.164 18.8729C27.004 19.3142 26.8004 19.6826 26.5531 19.9784C25.8889 20.662 25.038 21.016 24.0004 21.0402V21.0475C23.4865 21.0475 23.0428 20.9869 22.6695 20.8657C22.301 20.7445 21.9907 20.599 21.7386 20.4293C21.0986 20.8414 20.4101 21.0475 19.6731 21.0475C19.3919 21.0475 19.1301 21.0281 18.8877 20.9893C18.8149 21.7117 18.5531 22.4099 18.1022 23.0838C17.6513 23.7578 17.0234 24.2572 16.2186 24.582C15.5883 24.8196 14.8392 24.9384 13.9713 24.9384H12.2549C11.3822 24.9384 10.5943 24.7396 9.89131 24.342C9.19313 23.9445 8.63312 23.3311 8.21131 22.502C8.20161 22.4826 8.19191 22.4632 8.18222 22.4438C7.93494 21.9978 7.74585 21.5129 7.61494 20.9893C7.53252 20.6111 7.49131 20.216 7.49131 19.8038C7.49131 19.6293 7.49858 19.4523 7.51313 19.2729C7.59555 18.0657 7.98828 16.7663 8.69131 15.3748L11.3531 16.7129C10.7665 17.9154 10.4731 18.936 10.4731 19.7748C10.4731 20.2402 10.5652 20.6281 10.7495 20.9384C10.8707 21.1275 11.0162 21.2705 11.1859 21.3675C11.3555 21.4693 11.5349 21.5372 11.724 21.5711C11.9131 21.6099 12.0901 21.6293 12.2549 21.6293H13.9713C14.2574 21.6293 14.5604 21.6002 14.8804 21.542C15.2052 21.4838 15.4549 21.3651 15.6295 21.1857C15.8283 20.9481 15.9277 20.5238 15.9277 19.9129V15.3966H18.9022V17.1057C18.9022 17.2705 18.9483 17.416 19.0404 17.542C19.1325 17.6681 19.324 17.7311 19.6149 17.7311C19.8234 17.7311 19.9859 17.6802 20.1022 17.5784C20.2234 17.4717 20.284 17.3142 20.284 17.1057V15.3966H23.2659V17.1057C23.2659 17.2851 23.3168 17.4329 23.4186 17.5493C23.5252 17.6657 23.6562 17.7238 23.8113 17.7238C24.0052 17.7238 24.1556 17.6705 24.2622 17.5638C24.3737 17.4572 24.4295 17.3529 24.4295 17.2511C24.4295 17.2366 24.4271 17.222 24.4222 17.2075C24.3786 16.9505 24.3277 16.662 24.2695 16.342C24.2113 16.022 24.158 15.7408 24.1095 15.4984C24.0659 15.256 24.044 15.1348 24.044 15.1348L26.9604 14.5311ZM33.6039 17.7093H33.8657V21.0329H33.5312C33.3082 21.0329 33.0924 21.0087 32.8839 20.9602C32.8015 21.2899 32.673 21.6802 32.4985 22.1311C32.3288 22.582 32.0888 23.0014 31.7785 23.3893C31.3179 23.9178 30.7409 24.3105 30.0476 24.5675C29.393 24.8148 28.6536 24.9384 27.8294 24.9384H27.1094V21.622H27.8294C28.6536 21.622 29.2257 21.4451 29.5457 21.0911C29.7348 20.8584 29.8585 20.5723 29.9166 20.2329C29.9797 19.8935 30.0112 19.5832 30.0112 19.302V15.3966H32.993V17.1348C32.993 17.2851 33.0439 17.4184 33.1457 17.5348C33.2524 17.6511 33.4051 17.7093 33.6039 17.7093ZM37.3457 12.4948L35.7457 14.0875L34.153 12.4948L35.7457 10.8948L37.3457 12.4948ZM40.7566 12.4948L39.1566 14.0875L37.5639 12.4948L39.1566 10.8948L40.7566 12.4948ZM39.7093 15.3966V17.3602C39.7093 17.4814 39.736 17.5711 39.7893 17.6293C39.8427 17.6826 39.976 17.7093 40.1893 17.7093H41.3166V21.0257H40.2475C39.879 21.0257 39.5227 20.9723 39.1784 20.8657C38.8342 20.759 38.5166 20.6135 38.2257 20.4293C37.9445 20.6523 37.6293 20.8075 37.2802 20.8948C36.936 20.982 36.4899 21.0257 35.942 21.0257H33.5057V17.7093H36.153C36.3905 17.7093 36.5457 17.6851 36.6184 17.6366C36.6911 17.5832 36.7275 17.4911 36.7275 17.3602V15.3966H39.7093ZM53.6643 14.5457C53.6643 14.5457 53.6837 14.6475 53.7224 14.8511C53.7661 15.0499 53.8146 15.2899 53.8679 15.5711C53.9212 15.8523 53.9697 16.1263 54.0134 16.3929C54.057 16.6596 54.0837 16.8657 54.0934 17.0111C54.103 17.1178 54.1079 17.2245 54.1079 17.3311C54.1079 17.7238 54.0643 18.0923 53.977 18.4366C53.8897 18.7808 53.7806 19.0838 53.6497 19.3457C53.5188 19.6026 53.3855 19.8038 53.2497 19.9493C52.5903 20.6378 51.7394 20.999 50.697 21.0329C50.183 21.0329 49.7394 20.9699 49.3661 20.8438C48.9976 20.7226 48.6897 20.5748 48.4424 20.4002C48.1467 20.599 47.8437 20.7542 47.5334 20.8657C47.223 20.9772 46.8837 21.0329 46.5152 21.0329C46.0012 21.0329 45.5794 20.9699 45.2497 20.8438C44.9249 20.7226 44.6412 20.5748 44.3988 20.4002C44.2194 20.5942 44.0279 20.7348 43.8243 20.822C43.6255 20.9142 43.3176 20.9723 42.9006 20.9966C42.4837 21.0208 41.8364 21.0329 40.9588 21.0329V17.7093H42.0861C42.4012 17.7093 42.6218 17.656 42.7479 17.5493C42.8788 17.4378 42.9443 17.2826 42.9443 17.0838V15.3966H45.9261V17.1202C45.9261 17.2996 45.9697 17.4475 46.057 17.5638C46.1491 17.6802 46.2727 17.7408 46.4279 17.7457C46.8061 17.7457 46.9927 17.5372 46.9879 17.1202V15.3966H49.9624V17.1202C49.9624 17.2996 50.0158 17.4475 50.1224 17.5638C50.2291 17.6802 50.36 17.7384 50.5152 17.7384C50.714 17.7384 50.8643 17.6851 50.9661 17.5784C51.0727 17.4669 51.1261 17.3602 51.1261 17.2584V17.222C51.0824 16.9651 51.0315 16.6766 50.9734 16.3566C50.9152 16.0366 50.8618 15.7554 50.8134 15.5129C50.7697 15.2705 50.7479 15.1493 50.7479 15.1493L53.6643 14.5457ZM56.9396 13.5129L59.3978 11.8329C59.3978 11.8281 59.5093 11.9857 59.7323 12.3057C60.0669 12.7905 60.8208 13.8669 61.9941 15.5348C62.3675 16.0681 62.5857 16.6402 62.6487 17.2511C62.6632 17.3869 62.6705 17.5251 62.6705 17.6657C62.6705 17.9275 62.6438 18.1966 62.5905 18.4729C62.5372 18.7493 62.4451 19.0232 62.3141 19.2948C62.0281 19.8378 61.6208 20.2596 61.0923 20.5602C60.5687 20.8608 59.9772 21.0111 59.3178 21.0111C58.7748 21.0111 58.1881 20.9432 57.5578 20.8075C56.9323 20.6766 56.3845 20.5432 55.9141 20.4075C55.4487 20.2669 55.1626 20.1772 55.056 20.1384L56.0014 17.0257C56.4475 17.176 57.0051 17.3335 57.6741 17.4984C58.3432 17.6584 58.8911 17.7384 59.3178 17.7384C59.5214 17.7384 59.6378 17.702 59.6669 17.6293C59.6766 17.6099 59.6814 17.5857 59.6814 17.5566C59.6814 17.4838 59.6402 17.382 59.5578 17.2511C58.2681 15.4087 57.4754 14.279 57.1796 13.862C57.0245 13.6342 56.9445 13.5178 56.9396 13.5129Z" fill="#246ACA"/>
  <path fill-rule="evenodd" clip-rule="evenodd" d="M91.0801 13.9428C91.0801 13.7153 91.3207 13.5154 91.6837 13.4014L89.6683 12.0642L84.7988 11.8693V11.7637L89.4089 11.8921L87.8662 10.8685L88.2201 10.6774C87.8174 10.6576 87.4105 10.6475 86.9999 10.6475C78.1842 10.6475 71.0336 15.3117 71 21.0739H77.0592C77.7021 20.3491 79.1816 19.8419 80.9039 19.8419C82.4687 19.8419 83.833 20.2605 84.5516 20.8806L88.9828 20.0094L89.0029 20.0137L87.7621 15.6896L85.5534 14.8247V14.6427L97.7982 19.3042L92.6603 14.5706C92.5718 14.5799 92.48 14.5848 92.3859 14.5848C91.8451 14.5848 91.3812 14.4232 91.1829 14.1929L86.1473 13.9914V13.8857L91.0903 14.0234C91.0835 13.997 91.0801 13.9701 91.0801 13.9428ZM71.0142 21.5617C71.3722 27.1353 78.3923 31.5819 86.9999 31.5819C87.7532 31.5819 88.4942 31.5479 89.2198 31.482L81.1639 23.9221C81.0779 23.9246 80.9912 23.9259 80.9039 23.9259C78.5914 23.9259 76.7168 23.0117 76.7168 21.8839C76.7168 21.7743 76.7345 21.6667 76.7686 21.5617H71.0142ZM90.1061 31.3848C96.1674 30.6047 101 27.5854 102.509 23.6984L88.9828 20.7634L85.0176 21.5012C85.0658 21.6252 85.091 21.7531 85.091 21.8839C85.091 22.7933 83.8722 23.5638 82.1878 23.8282L90.1061 31.3848ZM102.834 22.6294C102.905 22.307 102.954 21.9799 102.98 21.6487L100.564 20.7029L102.834 22.6294ZM102.995 21.3807C102.998 21.2923 103 21.2036 103 21.1147C103 18.6394 101.687 16.3647 99.4908 14.5727L99.5565 14.7231L93.2976 14.4024C93.2649 14.4181 93.2305 14.4329 93.1946 14.4468L99.826 20.0761L102.904 21.2479L102.995 21.3807ZM99.4646 14.5514L93.5178 14.2631C93.6284 14.1688 93.6916 14.0594 93.6916 13.9428C93.6916 13.5882 93.107 13.3008 92.3859 13.3008C92.2024 13.3008 92.0278 13.3194 91.8694 13.3529L88.3401 10.6837C92.8304 10.9273 96.7945 12.3839 99.4646 14.5514ZM101.452 22.6706L89.3627 20.0905L87.9694 15.7708L98.3938 19.8529L101.452 22.6706ZM93.4826 13.9456C93.4826 14.2392 92.9986 14.4772 92.4015 14.4772C91.8044 14.4772 91.3203 14.2392 91.3203 13.9456C91.3203 13.652 91.8044 13.4141 92.4015 13.4141C92.9986 13.4141 93.4826 13.652 93.4826 13.9456ZM84.4239 21.8842C84.4239 22.818 82.8717 23.575 80.9571 23.575C79.0424 23.575 77.4902 22.818 77.4902 21.8842C77.4902 20.9504 79.0424 20.1935 80.9571 20.1935C82.8717 20.1935 84.4239 20.9504 84.4239 21.8842Z" fill="#F2BB05"/>
  <path fill-rule="evenodd" clip-rule="evenodd" d="M88.7229 7.68487C88.7229 7.80686 88.7195 7.92814 88.7127 8.04862C88.6456 12.3409 83.4599 18.7592 80.8309 21.6671C74.525 14.6426 72.8926 10.33 72.8926 7.96484H72.8928C72.8887 7.87196 72.8867 7.77863 72.8867 7.68487C72.8867 3.76208 76.4318 0.582031 80.8048 0.582031C85.1779 0.582031 88.7229 3.76208 88.7229 7.68487ZM80.8059 11.1258C83.0534 11.1258 84.8754 9.38091 84.8754 7.22846C84.8754 5.07601 83.0534 3.3311 80.8059 3.3311C78.5583 3.3311 76.7363 5.07601 76.7363 7.22846C76.7363 9.38091 78.5583 11.1258 80.8059 11.1258Z" fill="#EB3131"/>
  <path fill-rule="evenodd" clip-rule="evenodd" d="M94.7986 10.2971C94.7986 10.3273 94.7979 10.3573 94.7964 10.3872C94.7866 11.5576 93.3661 13.3161 92.647 14.1114C90.9324 12.2015 90.485 11.0268 90.4824 10.3806C90.4811 10.353 90.4805 10.3251 90.4805 10.2971C90.4805 9.22748 91.4471 8.36035 92.6396 8.36035C93.832 8.36035 94.7986 9.22748 94.7986 10.2971ZM92.639 11.2357C93.2518 11.2357 93.7487 10.7599 93.7487 10.173C93.7487 9.58603 93.2518 9.11024 92.639 9.11024C92.0261 9.11024 91.5293 9.58603 91.5293 10.173C91.5293 10.7599 92.0261 11.2357 92.639 11.2357Z" fill="#246ACA"/>
</svg>
